<?xml version="1.0" encoding="UTF-8"?>
<svg version="1.1" xmlns="http://www.w3.org/2000/svg" width="600" height="398">
<path d="M0 0 C198 0 396 0 600 0 C600 131.34 600 262.68 600 398 C402 398 204 398 0 398 C0 266.66 0 135.32 0 0 Z " fill="rgb(245, 240, 240)" transform="translate(0,0)"/>
<path d="M0 0 C0.33 0 0.66 0 1 0 C1.33917131 4.14537705 1.67026953 8.29136218 2 12.4375 C2.14308594 14.18450195 2.14308594 14.18450195 2.2890625 15.96679688 C2.79138362 22.33551102 3.1093176 28.61175303 3 35 C5.97 35 8.94 35 12 35 C12 36.65 12 38.3 12 40 C12.78503906 39.97679687 13.57007813 39.95359375 14.37890625 39.9296875 C15.95478516 39.90261719 15.95478516 39.90261719 17.5625 39.875 C18.59503906 39.85179687 19.62757813 39.82859375 20.69140625 39.8046875 C24.44428719 40.02622711 27.42981811 40.85646129 31 42 C30.86722656 43.03253906 30.73445313 44.06507812 30.59765625 45.12890625 C25.54208649 86.15165327 27.18286745 128.27729633 31.38574219 169.29467773 C31.97952762 175.22344348 32.17798135 181.03762491 32 187 C24.575 187.99 24.575 187.99 17 189 C17.33 195.27 17.66 201.54 18 208 C23.61 208 29.22 208 35 208 C35 209.98 35 211.96 35 214 C36.32 214 37.64 214 39 214 C39.01981934 213.13721436 39.03963867 212.27442871 39.06005859 211.38549805 C39.13819644 208.18163044 39.22489082 204.97814106 39.31738281 201.7746582 C39.3556435 200.38868093 39.39050156 199.00260535 39.421875 197.61645508 C39.46758699 195.6229836 39.52658925 193.62983086 39.5859375 191.63671875 C39.6173584 190.43748779 39.6487793 189.23825684 39.68115234 188.00268555 C40 185 40 185 42 182 C42.29113664 179.72738522 42.29113664 179.72738522 42.23046875 177.21875 C42.22853516 176.29449219 42.22660156 175.37023437 42.22460938 174.41796875 C42.21236328 173.45503906 42.20011719 172.49210938 42.1875 171.5 C42.18685547 170.53707031 42.18621094 169.57414063 42.18554688 168.58203125 C42.18798748 163.20468053 42.18798748 163.20468053 41 158 C41.4375 155.3125 41.4375 155.3125 42 153 C42.66 153 43.32 153 44 153 C44 153.66 44 154.32 44 155 C50.6 155 57.2 155 64 155 C64 154.34 64 153.68 64 153 C64.66 153 65.32 153 66 153 C66.90249856 158.14089921 66.97986395 162.69726374 66.5625 167.9375 C66.51029297 168.62134766 66.45808594 169.30519531 66.40429688 170.00976562 C66.27630102 171.67371169 66.13912281 173.3369473 66 175 C73.39053662 175.08753597 79.67138852 174.56293243 85.3671875 169.5 C88.15365941 165.23363153 87.81123229 160.71395559 87.828125 155.77734375 C87.90148276 150.07377767 88.98768047 144.58716561 90.0625 139 C90.24981689 138.01378662 90.43713379 137.02757324 90.63012695 136.01147461 C91.07902465 133.67269899 91.53525596 131.33566981 92 129 C91.34 128.67 90.68 128.34 90 128 C90.66 128 91.32 128 92 128 C92 127.01 92 126.02 92 125 C92.66 125 93.32 125 94 125 C94 125.99 94 126.98 94 128 C94.66 128.33 95.32 128.66 96 129 C95.34 129 94.68 129 94 129 C94.12117188 129.52464844 94.24234375 130.04929688 94.3671875 130.58984375 C95.57605715 136.17854112 96.39752219 141.76356586 97.0625 147.4375 C97.15249268 148.17266846 97.24248535 148.90783691 97.33520508 149.6652832 C97.71579362 152.90082486 98.00029138 156.03070453 98.03125 159.29296875 C98.07542807 163.29660593 98.19513332 165.92684443 100.640625 169.1875 C106.49003455 174.4056783 112.35946012 175.09049709 120 175 C119.91621094 173.74703125 119.83242188 172.4940625 119.74609375 171.203125 C119.64290491 169.55210357 119.54005822 167.90106073 119.4375 166.25 C119.38142578 165.425 119.32535156 164.6 119.26757812 163.75 C119.21923828 162.95078125 119.17089844 162.1515625 119.12109375 161.328125 C119.0739624 160.5949707 119.02683105 159.86181641 118.97827148 159.10644531 C119.00086207 156.91642774 119.38512544 155.09512813 120 153 C120.66 153 121.32 153 122 153 C122 153.66 122 154.32 122 155 C128.6 155 135.2 155 142 155 C142.33 154.34 142.66 153.68 143 153 C143 154.65 143 156.3 143 158 C143.66 158 144.32 158 145 158 C144.67 158.99 144.34 159.98 144 161 C143.77130611 164.49613384 143.81484461 167.99715356 143.8125 171.5 C143.80025391 172.46292969 143.78800781 173.42585937 143.77539062 174.41796875 C143.77345703 175.34222656 143.77152344 176.26648438 143.76953125 177.21875 C143.76542236 178.06373047 143.76131348 178.90871094 143.75708008 179.77929688 C143.85881591 182.28756873 143.85881591 182.28756873 146 185 C146.31884766 188.00268555 146.31884766 188.00268555 146.4140625 191.63671875 C146.45273437 192.93544922 146.49140625 194.23417969 146.53125 195.57226562 C146.56270517 196.94400573 146.59395251 198.31575061 146.625 199.6875 C146.66319197 201.07098785 146.70224442 202.45445223 146.7421875 203.83789062 C146.83660517 207.2251245 146.92218118 210.61235069 147 214 C147.99 214 148.98 214 150 214 C150 213.01 150 212.02 150 211 C152.31 211 154.62 211 157 211 C156.85915204 209.20793453 156.71216299 207.41635083 156.5625 205.625 C156.48128906 204.62726563 156.40007812 203.62953125 156.31640625 202.6015625 C156.15034374 200.02072387 156.15034374 200.02072387 155 198 C156.65 197.34 158.3 196.68 160 196 C160.02904864 192.08334892 160.04681517 188.1667256 160.0625 184.25 C160.07087891 183.13882813 160.07925781 182.02765625 160.08789062 180.8828125 C160.09111328 179.81289062 160.09433594 178.74296875 160.09765625 177.640625 C160.10289307 176.65610352 160.10812988 175.67158203 160.11352539 174.65722656 C160.09859274 172.06329065 160.09859274 172.06329065 159.43530273 169.88183594 C158.7036483 166.71885648 160.01585421 164.01032829 161 161 C161.33 161 161.66 161 162 161 C162.66 158.69 163.32 156.38 164 154 C167.875 154.875 167.875 154.875 169 156 C169.04080783 157.99958364 169.04254356 160.00045254 169 162 C169.99 162 170.98 162 172 162 C171.67 172.23 171.34 182.46 171 193 C170.34 193 169.68 193 169 193 C169.495 193.45375 169.99 193.9075 170.5 194.375 C172 196 172 196 172 198 C173.32 198 174.64 198 176 198 C175.67 202.29 175.34 206.58 175 211 C176.98 211 178.96 211 181 211 C181 211.99 181 212.98 181 214 C182.32 214 183.64 214 185 214 C185 213.01 185 212.02 185 211 C186.98 210.67 188.96 210.34 191 210 C191 209.01 191 208.02 191 207 C194.96 207 198.92 207 203 207 C202.67 196.77 202.34 186.54 202 176 C201.34 176 200.68 176 200 176 C200.6875 173.625 200.6875 173.625 202 171 C205.89499105 168.95037541 209.39785818 168.72207853 213.75 168.5625 C222.21366784 168.08811091 222.21366784 168.08811091 230 165 C231.13599938 163.03016182 231.13599938 163.03016182 232 161 C236.25156381 157.29702507 240.10437994 156.65229308 245.58203125 156.71484375 C249.54674076 157.18241046 252.74809333 158.72055346 256 161 C256.495 161.680625 256.99 162.36125 257.5 163.0625 C259.95981374 166.23975942 263.21622842 167.14707721 267 168 C270.54845674 168.31155207 274.07204839 168.49858481 277.6328125 168.59375 C281.35676443 169.0430435 283.80510477 170.06312444 287 172 C288.38244042 174.94920623 288.05356655 175.83930034 287 179 C286.84970012 181.06362991 286.75155552 183.13123915 286.68359375 185.19921875 C286.62075195 187.01196289 286.62075195 187.01196289 286.55664062 188.86132812 C286.49766602 190.7552832 286.49766602 190.7552832 286.4375 192.6875 C286.39431641 193.96173828 286.35113281 195.23597656 286.30664062 196.54882812 C286.2004514 199.69910852 286.09840467 202.84946839 286 206 C289.63 206 293.26 206 297 206 C297 207.32 297 208.64 297 210 C299.31 210.33 301.62 210.66 304 211 C304 211.99 304 212.98 304 214 C304.66 214 305.32 214 306 214 C306 216.64 306 219.28 306 222 C120.54 222 -64.92 222 -256 222 C-256 219.36 -256 216.72 -256 214 C-255.34 214 -254.68 214 -254 214 C-254 213.34 -254 212.68 -254 212 C-252.35 212 -250.7 212 -249 212 C-248.97421875 211.44054687 -248.9484375 210.88109375 -248.921875 210.3046875 C-248.37273111 202.54178977 -246.29603996 195.41140342 -244 188 C-243.34 188 -242.68 188 -242 188 C-242 188.99 -242 189.98 -242 191 C-238.41519817 189.80506606 -238.05313834 188.95007659 -236.1171875 185.81640625 C-235.58996094 184.97142578 -235.06273437 184.12644531 -234.51953125 183.25585938 C-233.97683594 182.36705078 -233.43414062 181.47824219 -232.875 180.5625 C-232.04935547 179.23508789 -232.04935547 179.23508789 -231.20703125 177.88085938 C-227.37770437 171.70407044 -225.85499109 168.22463963 -225.9375 160.875 C-225.94201172 160.12089844 -225.94652344 159.36679688 -225.95117188 158.58984375 C-225.96296501 156.72652873 -225.98090058 154.86325445 -226 153 C-224.68 152.67 -223.36 152.34 -222 152 C-222.05220703 150.88818359 -222.05220703 150.88818359 -222.10546875 149.75390625 C-222.28924024 142.60432021 -221.58693968 135.96141518 -220.21435547 128.97119141 C-218.40129871 119.40501587 -217.75360635 109.69676244 -217 100 C-216.34 100 -215.68 100 -215 100 C-214.42363908 104.26752342 -213.85424905 108.53590474 -213.29101562 112.80517578 C-213.09887134 114.25431767 -212.90489719 115.70321825 -212.70898438 117.15185547 C-212.42604866 119.2464459 -212.14992991 121.3418455 -211.875 123.4375 C-211.62363281 125.32275391 -211.62363281 125.32275391 -211.3671875 127.24609375 C-210.97937056 131.21090307 -210.93829319 135.01991098 -211 139 C-210.34 139 -209.68 139 -209 139 C-208.95101562 139.91523438 -208.90203125 140.83046875 -208.8515625 141.7734375 C-208.77679688 142.96195313 -208.70203125 144.15046875 -208.625 145.375 C-208.55539063 146.55835938 -208.48578125 147.74171875 -208.4140625 148.9609375 C-208.29782654 152.10562319 -208.29782654 152.10562319 -206 154 C-206.14564931 156.19068455 -206.34243206 158.37803608 -206.5625 160.5625 C-207.09498572 170.25230732 -201.83006766 176.87257518 -196.23681641 184.33691406 C-195.10768244 185.85520474 -194.04956403 187.42565396 -193 189 C-192.01 189.33 -191.02 189.66 -190 190 C-190 189.01 -190 188.02 -190 187 C-189.01 187.33 -188.02 187.66 -187 188 C-186.10223483 190.71731597 -185.41420524 193.27873527 -184.8125 196.0625 C-184.63525391 196.80177734 -184.45800781 197.54105469 -184.27539062 198.30273438 C-183.14193955 203.3047984 -182.83130091 207.87503792 -183 213 C-179.7 213.33 -176.4 213.66 -173 214 C-173.33 192.55 -173.66 171.1 -174 149 C-173.01 149 -172.02 149 -171 149 C-171.33 145.37 -171.66 141.74 -172 138 C-171.34 138 -170.68 138 -170 138 C-170 136.02 -170 134.04 -170 132 C-169.0409375 131.566875 -169.0409375 131.566875 -168.0625 131.125 C-165.84793921 130.17176549 -165.84793921 130.17176549 -165 128 C-162.9375 129.625 -162.9375 129.625 -161 132 C-161.25 135.25 -161.25 135.25 -162 138 C-161.34 138 -160.68 138 -160 138 C-160.33 141.63 -160.66 145.26 -161 149 C-159.68 149 -158.36 149 -157 149 C-157.33 164.18 -157.66 179.36 -158 195 C-156.68 195 -155.36 195 -154 195 C-154.08378906 194.18917969 -154.16757813 193.37835938 -154.25390625 192.54296875 C-155.0951195 183.39610574 -155.74942377 174.57011147 -152 166 C-151.34 166 -150.68 166 -150 166 C-147.20215985 170.71951457 -146.58709035 174.55639064 -146.75 179.9375 C-146.75515625 180.61490234 -146.7603125 181.29230469 -146.765625 181.99023438 C-146.83348822 186.41406784 -147.29588676 190.64471889 -148 195 C-146.68 195 -145.36 195 -144 195 C-144.04640625 194.41992188 -144.0928125 193.83984375 -144.140625 193.2421875 C-144.40106454 187.60553166 -143.94841929 184.35338537 -140 180 C-134.40498442 176 -134.40498442 176 -131 176 C-131 174.35 -131 172.7 -131 171 C-130.34 171 -129.68 171 -129 171 C-129 172.65 -129 174.3 -129 176 C-127.6696875 176.3403125 -127.6696875 176.3403125 -126.3125 176.6875 C-121.44688827 178.61538389 -118.82382977 181.15619052 -116.6875 185.9375 C-115.98541837 189.06495455 -115.84789353 191.80576417 -116 195 C-114.68 195 -113.36 195 -112 195 C-112.08378906 194.21238281 -112.16757813 193.42476562 -112.25390625 192.61328125 C-114.15879606 172.23819408 -114.15879606 172.23819408 -110 166 C-109.34 166 -108.68 166 -108 166 C-105.34111569 169.56632302 -104.63319464 172.11394685 -104.70703125 176.51953125 C-104.71669922 177.54111328 -104.72636719 178.56269531 -104.73632812 179.61523438 C-104.76146484 180.67033203 -104.78660156 181.72542969 -104.8125 182.8125 C-104.82603516 183.88693359 -104.83957031 184.96136719 -104.85351562 186.06835938 C-104.88877024 188.71245541 -104.94257434 191.35629256 -105 194 C-99.72 194 -94.44 194 -89 194 C-88.95875 192.659375 -88.9175 191.31875 -88.875 189.9375 C-88.3520199 185.33236967 -86.94406856 182.70773694 -83.765625 179.375 C-80.97374137 177.20078974 -78.46020061 176.62283611 -75 176 C-75 174.35 -75 172.7 -75 171 C-74.67 171 -74.34 171 -74 171 C-74 171.7425 -74 172.485 -74 173.25 C-73.30168642 176.05868915 -73.30168642 176.05868915 -71.29296875 177.046875 C-70.59816406 177.36140625 -69.90335938 177.6759375 -69.1875 178 C-65.31554359 179.76566774 -63.03745628 181.09487547 -61 185 C-60.69012986 188.36209104 -60.76478396 191.63510394 -61 195 C-60.01 195 -59.02 195 -58 195 C-58.33 179.82 -58.66 164.64 -59 149 C-57.68 149 -56.36 149 -55 149 C-55.33 145.37 -55.66 141.74 -56 138 C-55.34 138 -54.68 138 -54 138 C-54.268125 137.278125 -54.53625 136.55625 -54.8125 135.8125 C-55 133 -55 133 -52.5625 130.1875 C-51.716875 129.465625 -50.87125 128.74375 -50 128 C-48.35 129.32 -46.7 130.64 -45 132 C-45.33 133.98 -45.66 135.96 -46 138 C-45.34 138 -44.68 138 -44 138 C-44.33 141.63 -44.66 145.26 -45 149 C-43.68 149 -42.36 149 -41 149 C-41.33 170.12 -41.66 191.24 -42 213 C-39.36 213 -36.72 213 -34 213 C-34 211.35 -34 209.7 -34 208 C-28.72 207.67 -23.44 207.34 -18 207 C-17.34 201.06 -16.68 195.12 -16 189 C-20.95 188.34 -25.9 187.68 -31 187 C-31.20028715 178.69243744 -30.21978379 170.70086621 -29.15429688 162.47265625 C-26.86802125 143.9370948 -26.81181812 125.36654296 -26.81469727 106.71313477 C-26.81477849 104.03468062 -26.8078232 101.35639766 -26.79418945 98.67797852 C-26.70417376 79.57945509 -27.5817033 60.93720707 -30 42 C-25.72115394 39.8896565 -21.86135858 39.75871261 -17.1875 39.875 C-16.14819336 39.88853516 -16.14819336 39.88853516 -15.08789062 39.90234375 C-13.39177605 39.92573843 -11.69584129 39.96160359 -10 40 C-10 38.35 -10 36.7 -10 35 C-7.03 35 -4.06 35 -1 35 C-1.01160156 33.56269531 -1.02320313 32.12539063 -1.03515625 30.64453125 C-1.09225758 20.37521349 -1.080242 10.22371893 0 0 Z " fill="#333333" transform="translate(273,14)"/>
<path d="M0 0 C23 0 23 0 31 4 C36.65415891 10.10053988 37.41570965 14.30895132 37.33984375 22.46875 C36.88692806 27.17490843 35.36281704 29.96034506 33 34 C33.77736092 37.25241452 33.77736092 37.25241452 36.875 39.25 C41.06737889 42.65630785 42.6613841 46.27853148 43.31640625 51.54296875 C43.64212647 58.99250544 42.41089879 66.08531228 37.38671875 71.8515625 C25.94090785 82.15533019 17.35862876 79 0 79 C0 52.93 0 26.86 0 0 Z " fill="#373737" transform="translate(23,253)"/>
<path d="M0 0 C185.79 0 371.58 0 563 0 C563 1.65 563 3.3 563 5 C377.54 5 192.08 5 1 5 C0.67 3.35 0.34 1.7 0 0 Z " fill="#BBBBBB" transform="translate(16,242)"/>
<path d="M0 0 C25 0 25 0 34 5 C38.78779284 9.78779284 40.09751154 14.68052571 40.375 21.3125 C40.23902957 27.55864155 38.76637198 32.82178051 34.609375 37.59765625 C31.37316683 40.51875994 28.09301527 41.72877102 24 43 C24.67804688 43.98097656 25.35609375 44.96195312 26.0546875 45.97265625 C29.04684381 50.30800879 32.02681801 54.65161559 35 59 C35.4851709 59.70930664 35.9703418 60.41861328 36.47021484 61.14941406 C37.84012629 63.15823974 39.20255736 65.17191599 40.5625 67.1875 C40.97935059 67.79795166 41.39620117 68.40840332 41.82568359 69.03735352 C43.99459001 72.26914092 45.61910633 75.37192817 47 79 C42.85830022 79.59459413 39.12487329 79.79143386 35 79 C31.70278769 76.31164156 29.87314705 72.99517245 27.8125 69.3125 C26.63748258 67.3862526 25.46170129 65.46047096 24.28515625 63.53515625 C23.72844238 62.59043457 23.17172852 61.64571289 22.59814453 60.67236328 C20.45812104 57.09388832 18.13987262 53.66460215 15.75 50.25 C15.06421875 49.24453125 14.3784375 48.2390625 13.671875 47.203125 C12.18699399 44.90926646 12.18699399 44.90926646 10 44 C10 55.55 10 67.1 10 79 C6.7 79 3.4 79 0 79 C0 52.93 0 26.86 0 0 Z " fill="#383838" transform="translate(70,253)"/>
<path d="M0 0 C185.13 0 370.26 0 561 0 C561 1.32 561 2.64 561 4 C375.87 4 190.74 4 0 4 C0 2.68 0 1.36 0 0 Z " fill="#B2B2B2" transform="translate(17,339)"/>
<path d="M0 0 C2.3269043 0.15576172 2.3269043 0.15576172 5 1 C6.50708008 3.34033203 6.50708008 3.34033203 7.76953125 6.5078125 C8.25832764 7.7040625 8.74712402 8.9003125 9.25073242 10.1328125 C9.77166334 11.46340793 10.29224242 12.79414115 10.8125 14.125 C11.36441084 15.49555082 11.91824513 16.86532846 12.47387695 18.234375 C13.67690791 21.20509506 14.8692245 24.17984377 16.05566406 27.15722656 C18.10635437 32.28670969 20.21798736 37.39018118 22.3359375 42.4921875 C23.78695826 45.9945847 25.23720809 49.49730095 26.6875 53 C27.21484238 54.2720932 27.21484238 54.2720932 27.75283813 55.56988525 C28.759792 58.00330055 29.76146082 60.43882597 30.76171875 62.875 C31.2093306 63.95296341 31.2093306 63.95296341 31.66598511 65.05270386 C33.40987837 69.31579912 34.81338109 73.54845382 36 78 C32.37 78 28.74 78 25 78 C23.4933799 74.5652649 21.99448582 71.12751016 20.5 67.6875 C19.85611328 66.22280273 19.85611328 66.22280273 19.19921875 64.72851562 C18.79316406 63.79072266 18.38710938 62.85292969 17.96875 61.88671875 C17.40317383 60.59060669 17.40317383 60.59060669 16.82617188 59.26831055 C16 57 16 57 16 54 C6.76 54 -2.48 54 -12 54 C-12.33 55.65 -12.66 57.3 -13 59 C-13.57374186 60.56428495 -14.19131445 62.11306706 -14.84765625 63.64453125 C-15.20537109 64.48564453 -15.56308594 65.32675781 -15.93164062 66.19335938 C-16.49141602 67.48983398 -16.49141602 67.48983398 -17.0625 68.8125 C-17.43955078 69.69615234 -17.81660156 70.57980469 -18.20507812 71.49023438 C-19.13247024 73.6619754 -20.06566531 75.83123679 -21 78 C-24.63 78 -28.26 78 -32 78 C-29.92370941 70.59815888 -27.30911505 63.67125111 -24.25 56.625 C-23.27483336 54.35208053 -22.30095263 52.07860907 -21.328125 49.8046875 C-21.06874146 49.19959351 -20.80935791 48.59449951 -20.54211426 47.97106934 C-18.34296737 42.83070783 -16.18957215 37.67192739 -14.046875 32.5078125 C-13.71141663 31.69966095 -13.37595825 30.8915094 -13.03033447 30.05886841 C-11.68860157 26.8249946 -10.34763866 23.59080895 -9.0098877 20.35528564 C-8.0709661 18.08503349 -7.12942406 15.81588274 -6.1875 13.546875 C-5.77090118 12.53586227 -5.77090118 12.53586227 -5.34588623 11.50442505 C-3.71582891 7.58379952 -1.94238761 3.77540654 0 0 Z " fill="#353535" transform="translate(327,253)"/>
<path d="M0 0 C1.65 0 3.3 0 5 0 C5.27674561 0.69971924 5.55349121 1.39943848 5.83862305 2.12036133 C7.11873466 5.35221022 8.40309399 8.58235552 9.6875 11.8125 C10.12255859 12.91271484 10.55761719 14.01292969 11.00585938 15.14648438 C13.00757269 20.17300892 15.03878402 25.16406696 17.3125 30.07421875 C20.84236734 37.72724935 24.01119392 45.53329657 27.21313477 53.32763672 C28.32237836 56.02401255 29.43944115 58.71706872 30.55664062 61.41015625 C31.26350086 63.12740665 31.96989828 64.84484765 32.67578125 66.5625 C33.01007645 67.36558594 33.34437164 68.16867187 33.688797 68.99609375 C36 74.65705096 36 74.65705096 36 78 C34.39815374 78.1352403 32.79303374 78.23210847 31.1875 78.3125 C30.29417969 78.37050781 29.40085938 78.42851562 28.48046875 78.48828125 C26 78 26 78 24.3359375 75.88671875 C22.90449393 72.79362869 21.62780038 69.69403489 20.4375 66.5 C20.02371094 65.3965625 19.60992187 64.293125 19.18359375 63.15625 C18.79300781 62.1146875 18.40242188 61.073125 18 60 C17.34 58.35 16.68 56.7 16 55 C7.09 55 -1.82 55 -11 55 C-14.3 62.59 -17.6 70.18 -21 78 C-24.3 78 -27.6 78 -31 78 C-30.45768249 72.03450741 -28.64984705 67.21141664 -26.25 61.75 C-25.74726563 60.57630859 -25.74726563 60.57630859 -25.234375 59.37890625 C-23.43042681 55.19019321 -21.55783752 51.03818585 -19.64453125 46.8984375 C-16.33903671 39.6545625 -13.40529638 32.26170469 -10.4375 24.875 C-3.6909368 8.10381722 -3.6909368 8.10381722 0 0 Z " fill="#383838" transform="translate(155,253)"/>
<path d="M0 0 C13.53 0 27.06 0 41 0 C41 3.63 41 7.26 41 11 C30.77 11 20.54 11 10 11 C10 17.6 10 24.2 10 31 C20.23 31 30.46 31 41 31 C41 34.63 41 38.26 41 42 C30.77 42 20.54 42 10 42 C10 50.58 10 59.16 10 68 C20.23 68 30.46 68 41 68 C41 71.63 41 75.26 41 79 C27.47 79 13.94 79 0 79 C0 52.93 0 26.86 0 0 Z " fill="#363636" transform="translate(536,253)"/>
<path d="M0 0 C3.3 0 6.6 0 10 0 C15.75318106 10.84253353 19.87000605 22.4089493 23.87695312 33.98486328 C25.52849437 38.74020104 27.32546346 43.40197908 29.3359375 48.01953125 C30 50 30 50 30 54 C30.66 54 31.32 54 32 54 C32.14695312 53.45214844 32.29390625 52.90429688 32.4453125 52.33984375 C34.11049395 46.45428861 36.2081535 40.83514466 38.52148438 35.17480469 C40.67251487 29.88663559 42.66839713 24.55039213 44.625 19.1875 C46.97705062 12.74489862 49.39865604 6.34727927 52 0 C55.63 0 59.26 0 63 0 C62.21081406 3.94592971 61.31856521 7.01635296 59.84765625 10.69921875 C59.40583008 11.81312988 58.96400391 12.92704102 58.50878906 14.07470703 C58.03151367 15.26692871 57.55423828 16.45915039 57.0625 17.6875 C56.05662794 20.21927382 55.05382733 22.75226174 54.05078125 25.28515625 C53.79561737 25.92833801 53.54045349 26.57151978 53.27755737 27.23419189 C50.72288503 33.68036485 48.23291735 40.15088711 45.75 46.625 C45.1319751 48.22335693 45.1319751 48.22335693 44.50146484 49.85400391 C42.61168098 54.74802066 40.75553166 59.64733433 38.99609375 64.58984375 C38.68768555 65.43659668 38.37927734 66.28334961 38.06152344 67.15576172 C37.49710822 68.70995312 36.94838373 70.26997425 36.41894531 71.83642578 C35.66796875 73.87890625 35.66796875 73.87890625 34 77 C31.39575195 77.69506836 31.39575195 77.69506836 29 78 C28.62713867 77.01717041 28.25427734 76.03434082 27.87011719 75.02172852 C26.47113986 71.33618478 25.06881221 67.65192312 23.66552734 63.96801758 C23.06143849 62.38079424 22.45822935 60.79323577 21.85595703 59.20532227 C17.61133237 47.9991439 17.61133237 47.9991439 12.86767578 36.99829102 C11.19613789 33.14867435 9.9040621 29.16131407 8.5625 25.1875 C6.23834175 18.39859415 3.77281625 11.77058818 0.84765625 5.21484375 C0 3 0 3 0 0 Z " fill="#373737" transform="translate(366,253)"/>
<path d="M0 0 C12.87 0 25.74 0 39 0 C32.12946429 18.32142857 32.12946429 18.32142857 28.875 25.875 C24.45359834 36.2093605 20.33933968 46.6553783 16.25 57.125 C14.8475 60.71375 13.445 64.3025 12 68 C20.25 68 28.5 68 37 68 C37 71.63 37 75.26 37 79 C23.47 79 9.94 79 -4 79 C-0.62196862 68.86590585 -0.62196862 68.86590585 1.3046875 64.2578125 C1.93310547 62.75154297 1.93310547 62.75154297 2.57421875 61.21484375 C3.00347656 60.19519531 3.43273437 59.17554688 3.875 58.125 C4.29652344 57.11308594 4.71804687 56.10117187 5.15234375 55.05859375 C7.23374721 50.08741301 9.37106551 45.15332774 11.625 40.2578125 C13.66065027 35.81704663 15.46727922 31.34346094 17.125 26.75 C17.60509658 25.43168074 18.08685648 24.11396599 18.5703125 22.796875 C18.77414551 22.23323242 18.97797852 21.66958984 19.18798828 21.08886719 C20.37831955 18.02678831 21.70585576 15.01966989 23 12 C11.615 11.505 11.615 11.505 0 11 C0 7.37 0 3.74 0 0 Z " fill="#393939" transform="translate(200,253)"/>
<path d="M0 0 C12.87 0 25.74 0 39 0 C37.25067317 5.2479805 35.54954598 10.3152005 33.50390625 15.421875 C33.03307617 16.59927246 32.56224609 17.77666992 32.07714844 18.98974609 C31.57242815 20.24322952 31.06754155 21.49664598 30.5625 22.75 C30.0380445 24.05678676 29.51363117 25.36359044 28.98925781 26.67041016 C23.43337782 40.49111061 17.72757841 54.24974972 12 68 C20.25 68 28.5 68 37 68 C37 71.63 37 75.26 37 79 C23.8 79 10.6 79 -3 79 C-2.15945441 74.79727204 -1.12091376 71.52868563 0.484375 67.6015625 C0.73655289 66.9816745 0.98873077 66.3617865 1.24855042 65.72311401 C2.07785271 63.68853176 2.91374757 61.65673441 3.75 59.625 C4.32859822 58.21038013 4.9069641 56.79566522 5.48510742 55.38085938 C11.55821989 40.54624331 17.76825422 25.76852356 24 11 C16.08 11 8.16 11 0 11 C0 7.37 0 3.74 0 0 Z " fill="#383838" transform="translate(250,253)"/>
<path d="M0 0 C3.3 0 6.6 0 10 0 C10 22.44 10 44.88 10 68 C18.58 68 27.16 68 36 68 C36 71.63 36 75.26 36 79 C24.12 79 12.24 79 0 79 C0 52.93 0 26.86 0 0 Z " fill="#3B3B3B" transform="translate(496,253)"/>
<path d="M0 0 C3.3 0 6.6 0 10 0 C10 22.44 10 44.88 10 68 C18.58 68 27.16 68 36 68 C36 71.63 36 75.26 36 79 C24.12 79 12.24 79 0 79 C0 52.93 0 26.86 0 0 Z " fill="#393939" transform="translate(456,253)"/>
<path d="M0 0 C2.36352539 0.04589844 2.36352539 0.04589844 5 1 C6.70092773 3.69628906 6.70092773 3.69628906 8.18359375 7.265625 C8.4476149 7.89603699 8.71163605 8.52644897 8.98365784 9.17596436 C9.53667453 10.51035833 10.07991487 11.84884002 10.61401367 13.19091797 C11.43349571 15.2399875 12.29103221 17.26983107 13.15429688 19.30078125 C13.68726003 20.60059562 14.21793642 21.90135046 14.74609375 23.203125 C15.46817017 24.97671387 15.46817017 24.97671387 16.20483398 26.78613281 C17 30 17 30 16.30493164 32.84277344 C14.6245808 35.62061816 13.05995513 36.11422352 10 37 C10.33 38.98 10.66 40.96 11 43 C5.06 43 -0.88 43 -7 43 C-5.49191076 38.47573227 -3.90724747 34.33465333 -2 30 C-2.99 29.34 -3.98 28.68 -5 28 C-4.67 29.32 -4.34 30.64 -4 32 C-6.49064888 32.68707555 -8.37886292 33 -11 33 C-10.29480871 23.18021124 -7.26738351 7.26738351 0 0 Z " fill="#353535" transform="translate(327,253)"/>
<path d="M0 0 C2.97 0 5.94 0 9 0 C9 25.74 9 51.48 9 78 C6.03 78 3.06 78 0 78 C0 52.26 0 26.52 0 0 Z " fill="#303030" transform="translate(437,253)"/>
<path d="M0 0 C4.29651555 2.52186782 6.23981719 5.36793996 8 10 C8.60642845 14.85142763 7.59492368 17.88391417 5 22 C1.48159851 25.82884867 -1.75704807 26.7549443 -6.7890625 27.09765625 C-11.50757376 26.88924144 -14.19683577 24.86828566 -17.3125 21.5 C-20.1350365 17.31846444 -20.42121057 13.97028473 -20 9 C-17.85789193 4.63009955 -15.28317848 1.8323756 -10.99609375 -0.37109375 C-7.21333193 -1.56292282 -3.75964364 -1.0953849 0 0 Z " fill="#F4F4F4" transform="translate(515,352)"/>
<path d="M0 0 C3.49029792 1.97277708 6.19844633 4.39689265 8 8 C8.58748316 13.64887653 8.33473828 18.22020846 5 23 C1.11829801 26.43034129 -1.96864691 27.66776572 -7.046875 27.38671875 C-11.40219407 26.52436558 -14.16940903 23.74316034 -17.375 20.875 C-19.79011761 16.60209962 -20.01239766 12.78655659 -19 8 C-14.40209659 0.220011 -8.74560459 -1.3112392 0 0 Z " fill="#F7F7F7" transform="translate(201,352)"/>
<path d="M0 0 C15.13392857 -0.80357143 15.13392857 -0.80357143 19.375 2.875 C22.6679414 6.37058394 23.3620633 9.01906236 23.2734375 13.90234375 C22.810335 17.45500147 21.37513892 19.38125709 19 22 C12.39663002 26.12710624 8.60567169 25 0 25 C0 16.75 0 8.5 0 0 Z " fill="#F9F9F9" transform="translate(33,296)"/>
<path d="M0 0 C3.875 0.875 3.875 0.875 5 2 C5.04080783 3.99958364 5.04254356 6.00045254 5 8 C5.99 8 6.98 8 8 8 C7.67 18.23 7.34 28.46 7 39 C6.34 39 5.68 39 5 39 C5.495 39.45375 5.99 39.9075 6.5 40.375 C8 42 8 42 8 44 C9.32 44 10.64 44 12 44 C11.67 47.96 11.34 51.92 11 56 C10.34 55.34 9.68 54.68 9 54 C8.34 54.66 7.68 55.32 7 56 C6.01 51.71 5.02 47.42 4 43 C3.67 43.66 3.34 44.32 3 45 C0.4375 45.625 0.4375 45.625 -2 46 C-3.96465589 42.71313796 -4.22691398 40.30231587 -4.16015625 36.5 C-4.14919922 35.448125 -4.13824219 34.39625 -4.12695312 33.3125 C-4.10568359 32.219375 -4.08441406 31.12625 -4.0625 30 C-4.02800815 27.83340091 -3.99788162 25.66672679 -3.97265625 23.5 C-3.95468994 22.5409375 -3.93672363 21.581875 -3.91821289 20.59375 C-3.90043012 18.05443817 -3.90043012 18.05443817 -4.56030273 15.890625 C-5.29715885 12.72226644 -3.9861117 10.01634168 -3 7 C-2.67 7 -2.34 7 -2 7 C-1.34 4.69 -0.68 2.38 0 0 Z " fill="#343434" transform="translate(437,168)"/>
<path d="M0 0 C0.33 1.32 0.66 2.64 1 4 C3.97 4 6.94 4 10 4 C10.33 3.01 10.66 2.02 11 1 C13.97932935 4.48930465 15.54739251 8.39716735 17.1875 12.625 C17.46013672 13.305625 17.73277344 13.98625 18.01367188 14.6875 C20 19.72550517 20 19.72550517 20 22 C11.585 22.495 11.585 22.495 3 23 C2.67 23.99 2.34 24.98 2 26 C2 25.34 2 24.68 2 24 C-0.33214148 22.79371992 -2.49642139 21.8345262 -5 21 C-5.99 21.33 -6.98 21.66 -8 22 C-5.92957946 14.39162534 -3.14169523 7.2271408 0 0 Z " fill="#3A3A3A" transform="translate(146,274)"/>
<path d="M0 0 C12.96426577 -0.60580681 12.96426577 -0.60580681 17.3125 1.9375 C19.53558786 5.97199278 20.43022201 9.38931881 20 14 C18.04164766 17.84676353 16.58550738 19.60966175 13 22 C8.65339644 22.27064779 4.35919984 22.08632079 0 22 C0 14.74 0 7.48 0 0 Z " fill="#F6F6F6" transform="translate(80,264)"/>
<path d="M0 0 C5.64242292 3.3645074 9.93654919 8.80964758 12 15 C12.89835917 23.85104692 11.45253978 31.46854153 6 38.625 C4 40 4 40 0 40 C-0.495 38.515 -0.495 38.515 -1 37 C-0.01 37 0.98 37 2 37 C2 36.34 2 35.68 2 35 C-3.445 35.495 -3.445 35.495 -9 36 C-9 35.01 -9 34.02 -9 33 C-7.3603125 32.4121875 -7.3603125 32.4121875 -5.6875 31.8125 C-3.09968624 30.68098629 -1.98391162 29.9818357 -0.0625 27.8125 C1.34079147 24.09790492 1.7379232 20.91972109 1 17 C-0.74409751 14.1099784 -0.74409751 14.1099784 -3 12 C-3.66 11.34 -4.32 10.68 -5 10 C1.75 9 1.75 9 4 9 C4.33 8.34 4.66 7.68 5 7 C4.05125 6.7525 3.1025 6.505 2.125 6.25 C-1 5 -1 5 -2.375 2.875 C-2.58125 2.25625 -2.7875 1.6375 -3 1 C-2.01 0.67 -1.02 0.34 0 0 Z " fill="#373737" transform="translate(54,287)"/>
<path d="M0 0 C1.65 0.33 3.3 0.66 5 1 C5 1.66 5 2.32 5 3 C6.98 2.01 8.96 1.02 11 0 C11 0.66 11 1.32 11 2 C13.57211322 3.28605661 15.56906966 3.21043941 18.4453125 3.31640625 C19.52167969 3.35830078 20.59804688 3.40019531 21.70703125 3.44335938 C23.39892578 3.50233398 23.39892578 3.50233398 25.125 3.5625 C26.26066406 3.60568359 27.39632812 3.64886719 28.56640625 3.69335938 C31.37747768 3.7996604 34.18863945 3.90169405 37 4 C37 4.33 37 4.66 37 5 C27.76 5 18.52 5 9 5 C8.67 6.65 8.34 8.3 8 10 C7.42625814 11.56428495 6.80868555 13.11306706 6.15234375 14.64453125 C5.79462891 15.48564453 5.43691406 16.32675781 5.06835938 17.19335938 C4.69517578 18.05767578 4.32199219 18.92199219 3.9375 19.8125 C3.56044922 20.69615234 3.18339844 21.57980469 2.79492188 22.49023438 C1.86752976 24.6619754 0.93433469 26.83123679 0 29 C-3.63 29 -7.26 29 -11 29 C-8.35842154 18.92898212 -4.1285413 9.53101572 0 0 Z " fill="#3A3A3A" transform="translate(306,302)"/>
<path d="M0 0 C11.88452656 -0.4295612 11.88452656 -0.4295612 16 3 C17.64156736 4.64156736 17.28815992 6.49215801 17.375 8.75 C17.35176468 12.81037168 17.2199311 13.71640463 14.625 17.0625 C8.95316063 21.24885763 9.19318884 20 0 20 C0 13.4 0 6.8 0 0 Z " fill="#FAFAFA" transform="translate(33,264)"/>
<path d="M0 0 C1.4074909 0.94502961 2.75098869 1.98415928 4.078125 3.0390625 C3.748125 4.0290625 3.418125 5.0190625 3.078125 6.0390625 C2.43875 5.7296875 1.799375 5.4203125 1.140625 5.1015625 C-3.99429527 3.32005955 -8.82210709 2.12041404 -13.921875 4.3515625 C-16.01166466 5.8893018 -16.01166466 5.8893018 -16.921875 8.0390625 C-17.30732038 13.89321718 -17.30732038 13.89321718 -14.921875 19.0390625 C-11.299643 21.82539481 -7.28156987 21.24666702 -2.921875 21.0390625 C-1.931875 20.7090625 -0.941875 20.3790625 0.078125 20.0390625 C0.81136296 18.02397892 0.81136296 18.02397892 1.078125 16.0390625 C-1.231875 16.0390625 -3.541875 16.0390625 -5.921875 16.0390625 C-5.921875 14.7190625 -5.921875 13.3990625 -5.921875 12.0390625 C-1.961875 12.0390625 1.998125 12.0390625 6.078125 12.0390625 C5.57009732 16.40810059 4.73538447 19.49604987 2.078125 23.0390625 C-2.76056032 26.1379958 -8.3998908 25.76991335 -13.921875 25.0390625 C-17.2209723 23.45876971 -19.09435514 21.12988414 -21.296875 18.2265625 C-22.76830284 13.07656508 -22.62907326 9.37768779 -20.171875 4.7265625 C-14.74026449 -1.7611945 -7.88134036 -3.94067018 0 0 Z " fill="#3F3F3F" transform="translate(410.921875,352.9609375)"/>
<path d="M0 0 C4.29651555 2.52186782 6.23981719 5.36793996 8 10 C8.60642845 14.85142763 7.59492368 17.88391417 5 22 C1.48159851 25.82884867 -1.75704807 26.7549443 -6.7890625 27.09765625 C-11.50757376 26.88924144 -14.19683577 24.86828566 -17.3125 21.5 C-20.1350365 17.31846444 -20.42121057 13.97028473 -20 9 C-17.85789193 4.63009955 -15.28317848 1.8323756 -10.99609375 -0.37109375 C-7.21333193 -1.56292282 -3.75964364 -1.0953849 0 0 Z M-15 8 C-16.55024464 11.10048928 -16.28992015 13.57894218 -16 17 C-14.20437595 19.75329021 -12.94745078 21.52627461 -10 23 C-4.01477198 23.67984933 -4.01477198 23.67984933 0.9375 20.625 C4.13042265 16.56128027 4.52903519 14.20217933 4 9 C1.04663048 5.42486848 -1.12005119 3.25635666 -5.75 2.625 C-10.2753858 3.1471599 -11.7671103 4.84229378 -15 8 Z " fill="#3D3D3D" transform="translate(515,352)"/>
<path d="M0 0 C3.49029792 1.97277708 6.19844633 4.39689265 8 8 C8.58748316 13.64887653 8.33473828 18.22020846 5 23 C1.11829801 26.43034129 -1.96864691 27.66776572 -7.046875 27.38671875 C-11.40219407 26.52436558 -14.16940903 23.74316034 -17.375 20.875 C-19.79011761 16.60209962 -20.01239766 12.78655659 -19 8 C-14.40209659 0.220011 -8.74560459 -1.3112392 0 0 Z M-14 7 C-15.60086627 10.20173254 -15.49917089 13.52577059 -15 17 C-13.20636089 19.8100346 -11.98119065 21.50940468 -9 23 C-4.25724067 23.46650092 -2.07139562 23.66962226 2 21.125 C4.80829626 16.73703709 4.89147838 13.07456923 4 8 C2.3381213 5.03752058 1.13449904 4.319607 -2.09375 3.41015625 C-7.40496936 2.48069286 -10.19038698 2.83323576 -14 7 Z " fill="#434343" transform="translate(201,352)"/>
<path d="M0 0 C0.66 0 1.32 0 2 0 C3.49877503 1.65483608 4.92488473 3.37590512 6.3125 5.125 C7.07175781 6.07632812 7.83101563 7.02765625 8.61328125 8.0078125 C9.40089844 8.99523437 10.18851562 9.98265625 11 11 C12.65 12.98 14.3 14.96 16 17 C16.33 11.39 16.66 5.78 17 0 C18.32 0 19.64 0 21 0 C21 8.58 21 17.16 21 26 C17.64177277 24.32088639 16.33408406 23.56604972 13.984375 20.9609375 C13.45585937 20.38085938 12.92734375 19.80078125 12.3828125 19.203125 C11.84398437 18.59984375 11.30515625 17.9965625 10.75 17.375 C10.19570313 16.76398438 9.64140625 16.15296875 9.0703125 15.5234375 C7.7082159 14.02043435 6.35338399 12.5108532 5 11 C4.67 15.95 4.34 20.9 4 26 C2.68 26 1.36 26 0 26 C0 17.42 0 8.84 0 0 Z " fill="#454545" transform="translate(289,352)"/>
<path d="M0 0 C0.66 0 1.32 0 2 0 C2 0.99 2 1.98 2 3 C2.66 3.33 3.32 3.66 4 4 C3.34 4 2.68 4 2 4 C2.12117188 4.52464844 2.24234375 5.04929688 2.3671875 5.58984375 C3.89760547 12.66508373 4.73961114 19.76346171 5.53515625 26.94921875 C5.9464807 30.64583138 6.45511179 34.32079905 7 38 C4.36 38.33 1.72 38.66 -1 39 C-0.67 37.35 -0.34 35.7 0 34 C-1.485 34.495 -1.485 34.495 -3 35 C-4 34 -4 34 -4.1875 30.65625 C-4.11884557 25.16389555 -3.04429683 19.87671747 -2 14.5 C-1.80921875 13.48679688 -1.6184375 12.47359375 -1.421875 11.4296875 C-0.95435389 8.95182561 -0.48026672 6.47541732 0 4 C-0.66 3.67 -1.32 3.34 -2 3 C-1.34 3 -0.68 3 0 3 C0 2.01 0 1.02 0 0 Z " fill="#353535" transform="translate(365,139)"/>
<path d="M0 0 C1.65234375 1.09375 1.65234375 1.09375 4.08984375 3.03125 C3.75984375 4.02125 3.42984375 5.01125 3.08984375 6.03125 C-1.78515625 4.15625 -1.78515625 4.15625 -2.91015625 3.03125 C-8.71908644 2.49952625 -8.71908644 2.49952625 -13.84765625 4.90625 C-16.25065638 7.38206831 -16.82068613 8.37513577 -17.28515625 11.78125 C-16.8839001 15.25880329 -15.98950748 17.29933481 -13.60546875 19.89453125 C-10.81918152 21.7627561 -8.2631174 21.65144075 -4.9921875 21.4453125 C-2.38021794 20.92585889 -0.88471152 19.77797197 1.08984375 18.03125 C2.07984375 18.36125 3.06984375 18.69125 4.08984375 19.03125 C3.15631943 21.36506079 2.51878104 22.75248984 0.3828125 24.140625 C-4.18256474 25.91388907 -9.1053875 25.57022543 -13.91015625 25.03125 C-17.65447648 22.93443067 -19.28065946 20.92237596 -20.91015625 17.03125 C-21.61046977 12.09648261 -21.42466121 8.11962587 -19.28515625 3.59375 C-13.85353013 -2.26668871 -7.2206845 -3.66202404 0 0 Z " fill="#3B3B3B" transform="translate(98.91015625,352.96875)"/>
<path d="M0 0 C0.66 0 1.32 0 2 0 C3.33912585 3.12254943 4.67030658 6.24842358 6 9.375 C6.3815625 10.26445312 6.763125 11.15390625 7.15625 12.0703125 C7.69765625 13.34648437 7.69765625 13.34648437 8.25 14.6484375 C8.58515625 15.43395996 8.9203125 16.21948242 9.265625 17.02880859 C10 19 10 19 10 21 C4.06 21 -1.88 21 -8 21 C-5.75 14.25 -5.75 14.25 -4.4921875 11.1328125 C-4.22792969 10.47539062 -3.96367187 9.81796875 -3.69140625 9.140625 C-3.42199219 8.47546875 -3.15257812 7.8103125 -2.875 7.125 C-2.59785156 6.43664062 -2.32070313 5.74828125 -2.03515625 5.0390625 C-1.35835767 3.35873499 -0.67940197 1.67927658 0 0 Z " fill="#EEEEEE" transform="translate(328,275)"/>
<path d="M0 0 C2.97932935 3.48930465 4.54739251 7.39716735 6.1875 11.625 C6.46013672 12.305625 6.73277344 12.98625 7.01367188 13.6875 C9 18.72550517 9 18.72550517 9 21 C3.39 21 -2.22 21 -8 21 C-5.96907005 13.62451755 -3.31458488 6.89119228 0 0 Z " fill="#F1F1F1" transform="translate(157,275)"/>
<path d="M0 0 C0.66 0 1.32 0 2 0 C5.54075574 4.32471869 5.4258841 8.30955331 5.3125 13.625 C5.31572266 14.388125 5.31894531 15.15125 5.32226562 15.9375 C5.28503924 19.79550768 5.18383471 21.72424794 3 25 C2.01 25 1.02 25 0 25 C0.226875 25.763125 0.45375 26.52625 0.6875 27.3125 C0.790625 28.199375 0.89375 29.08625 1 30 C-0.4375 31.8125 -0.4375 31.8125 -2 33 C-2.495 31.515 -2.495 31.515 -3 30 C-3.66 29.67 -4.32 29.34 -5 29 C-4.01 29 -3.02 29 -2 29 C-2.08378906 28.21238281 -2.16757813 27.42476562 -2.25390625 26.61328125 C-4.15879606 6.23819408 -4.15879606 6.23819408 0 0 Z " fill="#2E2E2E" transform="translate(163,180)"/>
<path d="M0 0 C3.875 0.875 3.875 0.875 5 2 C5.04080783 3.99958364 5.04254356 6.00045254 5 8 C5.99 8 6.98 8 8 8 C8 9.32 8 10.64 8 12 C5.69 12.33 3.38 12.66 1 13 C-1.72228967 27.50905235 -1.72228967 27.50905235 0 42 C-1.98 42.495 -1.98 42.495 -4 43 C-3.99476318 42.26362305 -3.98952637 41.52724609 -3.98413086 40.76855469 C-3.96333133 37.42904515 -3.95033032 34.08954926 -3.9375 30.75 C-3.92912109 29.59113281 -3.92074219 28.43226563 -3.91210938 27.23828125 C-3.90888672 26.12324219 -3.90566406 25.00820312 -3.90234375 23.859375 C-3.89710693 22.83295898 -3.89187012 21.80654297 -3.88647461 20.74902344 C-3.89774834 18.07602667 -3.89774834 18.07602667 -4.56469727 15.86816406 C-5.29970859 12.71375763 -3.98151992 10.00229621 -3 7 C-2.67 7 -2.34 7 -2 7 C-1.34 4.69 -0.68 2.38 0 0 Z " fill="#3C3C3C" transform="translate(437,168)"/>
<path d="M0 0 C0.66 0 1.32 0 2 0 C2.68473395 2.32809543 3.34853151 4.66237777 4 7 C4.2475 7.86625 4.495 8.7325 4.75 9.625 C5 12 5 12 3 17 C-0.63 17 -4.26 17 -8 17 C-4.83561644 5.69863014 -4.83561644 5.69863014 -2 2 C-1.34 2 -0.68 2 0 2 C0 1.34 0 0.68 0 0 Z " fill="#313131" transform="translate(303,314)"/>
<path d="M0 0 C1.875 1 1.875 1 3 3 C3.36095911 5.80173027 3.22716238 8.13775402 3 11 C1 13 1 13 -2.5 13.1875 C-6 13 -6 13 -8 12 C-9.180933 8.457201 -9.27028374 5.71640139 -9 2 C-5.53076119 -0.31282587 -4.07794425 -0.42478586 0 0 Z " fill="#D0D0D0" transform="translate(35,357)"/>
<path d="M0 0 C0.70125 0.01417969 1.4025 0.02835937 2.125 0.04296875 C3.176875 0.05263672 3.176875 0.05263672 4.25 0.0625 C6.125 0.23046875 6.125 0.23046875 8.125 1.23046875 C9 4.54296875 9 4.54296875 9.125 8.23046875 C7.5625 10.66796875 7.5625 10.66796875 5.125 12.23046875 C1.01722251 12.73346191 -0.38375983 12.5579622 -3.875 10.23046875 C-4.23828125 8.35546875 -4.23828125 8.35546875 -4.1875 6.23046875 C-4.18169922 5.17859375 -4.18169922 5.17859375 -4.17578125 4.10546875 C-3.74260245 1.40513337 -2.72907764 0.33544913 0 0 Z " fill="#D2D2D2" transform="translate(558.875,357.76953125)"/>
<path d="M0 0 C0.66 0 1.32 0 2 0 C6.0449982 5.89895571 5.27748976 12.07303328 5 19 C2.36 19.66 -0.28 20.32 -3 21 C-2.88553728 18.43663746 -2.75880499 15.87486555 -2.625 13.3125 C-2.5940625 12.59126953 -2.563125 11.87003906 -2.53125 11.12695312 C-2.30664413 7.02789606 -1.82259091 3.75631541 0 0 Z " fill="#303030" transform="translate(121,180)"/>
<path d="M0 0 C1.125 3.75 1.125 3.75 0 6 C0.66 6.33 1.32 6.66 2 7 C1.67 7.99 1.34 8.98 1 10 C0.93197033 11.72795352 0.91504355 13.45835365 0.9375 15.1875 C0.94652344 16.08855469 0.95554687 16.98960937 0.96484375 17.91796875 C0.97644531 18.60503906 0.98804687 19.29210937 1 20 C1.99 20 2.98 20 4 20 C3.9278125 21.29035156 3.855625 22.58070313 3.78125 23.91015625 C3.68740068 25.62759874 3.59365624 27.34504697 3.5 29.0625 C3.45230469 29.91005859 3.40460938 30.75761719 3.35546875 31.63085938 C3.09608564 36.42944688 2.94783715 41.19449788 3 46 C1.68 46 0.36 46 -1 46 C-1.02469669 39.93107399 -1.04285842 33.86217717 -1.05493164 27.79321289 C-1.05996414 25.72810354 -1.06679069 23.66299776 -1.07543945 21.59790039 C-1.08755236 18.63166422 -1.09323911 15.66547511 -1.09765625 12.69921875 C-1.10539818 11.31158577 -1.10539818 11.31158577 -1.11329651 9.8959198 C-1.11337204 9.03525406 -1.11344757 8.17458832 -1.11352539 7.2878418 C-1.115746 6.53061325 -1.11796661 5.7733847 -1.12025452 4.99320984 C-1 3 -1 3 0 0 Z " fill="#EAEAEA" transform="translate(116,163)"/>
<path d="M0 0 C0.33 0 0.66 0 1 0 C1.33 1.65 1.66 3.3 2 5 C2.66 4.34 3.32 3.68 4 3 C4.2475 4.258125 4.495 5.51625 4.75 6.8125 C5.43248495 9.45362327 5.88456528 10.8579265 7.625 13 C12.23158125 14.93961316 17.28011683 14.45227174 22 13 C22.66 13 23.32 13 24 13 C24 12.34 24 11.68 24 11 C24.66 11.33 25.32 11.66 26 12 C19.3096374 18.87118321 19.3096374 18.87118321 14.1875 19.375 C8.66746962 19.22307256 5.62228337 16.4515167 1.625 12.875 C-0.75911835 8.65694446 -0.33125543 4.73879295 0 0 Z " fill="#3D3D3D" transform="translate(182,360)"/>
<path d="M0 0 C3.0625 2.5625 3.0625 2.5625 5 5 C2.6875 5.625 2.6875 5.625 0 6 C-0.99 5.34 -1.98 4.68 -3 4 C-6.77903979 3.50708177 -8.4632926 3.65051611 -11.6875 5.75 C-14.01331754 7.89668815 -14.01331754 7.89668815 -15.6875 10.25 C-16.120625 10.8275 -16.55375 11.405 -17 12 C-17.66 12 -18.32 12 -19 12 C-19.33 13.32 -19.66 14.64 -20 16 C-20.32289152 11.96385598 -20.23629571 9.48204325 -18.4375 5.8125 C-13.22601757 -0.20074896 -7.86066561 -2.61532426 0 0 Z " fill="#4F4F4F" transform="translate(515,352)"/>
<path d="M0 0 C1.98 1.32 3.96 2.64 6 4 C5.67 5.98 5.34 7.96 5 10 C5.66 10 6.32 10 7 10 C6.67 13.63 6.34 17.26 6 21 C1.84209157 16.84209157 0.48374802 13.61704608 -1 8 C-1.66 8 -2.32 8 -3 8 C-3.33 7.01 -3.66 6.02 -4 5 C-2.0625 2.3125 -2.0625 2.3125 0 0 Z " fill="#3D3D3D" transform="translate(222,142)"/>
<path d="M0 0 C0.33 0 0.66 0 1 0 C1 25.74 1 51.48 1 78 C-3 73 -3 73 -2.75 69.1875 C-2.5025 68.135625 -2.255 67.08375 -2 66 C-1.34 66 -0.68 66 0 66 C0 44.22 0 22.44 0 0 Z " fill="#E3E3E3" transform="translate(535,254)"/>
<path d="M0 0 C0.33 0 0.66 0 1 0 C1.0825 0.7425 1.165 1.485 1.25 2.25 C2.14433785 5.52923879 3.59900612 6.67645754 6 9 C6 9.99 6 10.98 6 12 C2.7 12 -0.6 12 -4 12 C-6 8 -6 8 -6 4 C-5.34 4 -4.68 4 -4 4 C-4.33 3.01 -4.66 2.02 -5 1 C-3.02 1.495 -3.02 1.495 -1 2 C-0.67 1.34 -0.34 0.68 0 0 Z " fill="#323232" transform="translate(185,319)"/>
<path d="M0 0 C0.33 0 0.66 0 1 0 C1.020625 0.763125 1.04125 1.52625 1.0625 2.3125 C1.79660949 5.41389118 1.79660949 5.41389118 5.5625 6.8125 C6.696875 7.204375 7.83125 7.59625 9 8 C8.67 8.66 8.34 9.32 8 10 C5.32049938 10.41578458 2.69447458 10.74201839 0 11 C-5.05398547 11.31631036 -5.05398547 11.31631036 -9 14 C-9.99 14 -10.98 14 -12 14 C-10.5019913 10.18688695 -8.37351976 8.27516449 -5 6 C-2.1875 5.25 -2.1875 5.25 0 5 C0 3.35 0 1.7 0 0 Z " fill="#3A3A3A" transform="translate(198,185)"/>
<path d="M0 0 C1.4074909 0.94502961 2.75098869 1.98415928 4.078125 3.0390625 C3.748125 4.0290625 3.418125 5.0190625 3.078125 6.0390625 C-1.796875 4.1640625 -1.796875 4.1640625 -2.921875 3.0390625 C-8.32415129 2.67891075 -11.44306171 2.67995253 -15.921875 6.0390625 C-15.921875 5.3790625 -15.921875 4.7190625 -15.921875 4.0390625 C-16.911875 3.7090625 -17.901875 3.3790625 -18.921875 3.0390625 C-13.02267022 -1.90351448 -7.23171821 -3.61585911 0 0 Z " fill="#434343" transform="translate(98.921875,352.9609375)"/>
<path d="M0 0 C0.66 1.32 1.32 2.64 2 4 C-11.53 4 -25.06 4 -39 4 C-39 3.34 -39 2.68 -39 2 C-26.13 2 -13.26 2 0 2 C0 1.34 0 0.68 0 0 Z " fill="#444444" transform="translate(575,328)"/>
<path d="M0 0 C0.66 0.99 1.32 1.98 2 3 C1.125 5.6875 1.125 5.6875 0 8 C1.65 8.33 3.3 8.66 5 9 C5.33 7.02 5.66 5.04 6 3 C6.33 3.66 6.66 4.32 7 5 C7.66 5 8.32 5 9 5 C8.54738642 6.43931117 8.08767021 7.87638999 7.625 9.3125 C7.36976563 10.11300781 7.11453125 10.91351563 6.8515625 11.73828125 C6 14 6 14 4 17 C4 15.68 4 14.36 4 13 C0.39007621 13.65585189 0.39007621 13.65585189 -3 15 C-4.18956883 10.84773144 -3.78960563 8.61274007 -2.0625 4.6875 C-1.68222656 3.80449219 -1.30195313 2.92148437 -0.91015625 2.01171875 C-0.60980469 1.34785156 -0.30945313 0.68398438 0 0 Z " fill="#3B3B3B" transform="translate(270,273)"/>
<path d="M0 0 C0.33 0.66 0.66 1.32 1 2 C3.57211322 3.28605661 5.56906966 3.21043941 8.4453125 3.31640625 C9.52167969 3.35830078 10.59804688 3.40019531 11.70703125 3.44335938 C13.39892578 3.50233398 13.39892578 3.50233398 15.125 3.5625 C16.26066406 3.60568359 17.39632813 3.64886719 18.56640625 3.69335938 C21.37747768 3.7996604 24.18863945 3.90169405 27 4 C27 4.33 27 4.66 27 5 C17.76 5 8.52 5 -1 5 C-1.33 6.65 -1.66 8.3 -2 10 C-2.99 10.495 -2.99 10.495 -4 11 C-4 10.01 -4 9.02 -4 8 C-5.32 7.67 -6.64 7.34 -8 7 C-8.33 5.35 -8.66 3.7 -9 2 C-7.68 1.67 -6.36 1.34 -5 1 C-5 1.66 -5 2.32 -5 3 C-3.35 2.01 -1.7 1.02 0 0 Z " fill="#4E4E4E" transform="translate(316,302)"/>
<path d="M0 0 C2.85717723 2.85717723 4.71872929 4.82731978 6.75 8.125 C7.39195313 9.14980469 7.39195313 9.14980469 8.046875 10.1953125 C9 12 9 12 9 14 C5.04 14 1.08 14 -3 14 C-3 12.35 -3 10.7 -3 9 C-2.01 9.495 -2.01 9.495 -1 10 C-1.33 10.66 -1.66 11.32 -2 12 C-1.34 12 -0.68 12 0 12 C0 8.04 0 4.08 0 0 Z " fill="#404040" transform="translate(108,318)"/>
<path d="M0 0 C0.66 0 1.32 0 2 0 C2 0.99 2 1.98 2 3 C2.66 3.33 3.32 3.66 4 4 C3.34 4 2.68 4 2 4 C2.144375 4.65226563 2.28875 5.30453125 2.4375 5.9765625 C3.44627294 10.72620177 4.25715306 15.11409188 4 20 C2.68 19.34 1.36 18.68 0 18 C-0.66 20.31 -1.32 22.62 -2 25 C-2.33 25 -2.66 25 -3 25 C-2.48462048 17.86606248 -1.55994099 10.98187183 0 4 C-0.66 3.67 -1.32 3.34 -2 3 C-1.34 3 -0.68 3 0 3 C0 2.01 0 1.02 0 0 Z " fill="#515151" transform="translate(365,139)"/>
<path d="M0 0 C2 2 2 2 2 4 C-0.97 3.505 -0.97 3.505 -4 3 C-5.2827959 5.38233524 -6.18544487 7.59110551 -7 10.1875 C-8 13 -8 13 -10 14 C-10.33 11.69 -10.66 9.38 -11 7 C-11.66 7 -12.32 7 -13 7 C-12.09456528 3.87213459 -11.6185409 2.36081553 -8.75 0.6875 C-5.68282904 -0.07929274 -3.14913963 -0.27992352 0 0 Z " fill="#3A3A3A" transform="translate(486,183)"/>
<path d="M0 0 C0.33 0.99 0.66 1.98 1 3 C-0.8253125 3.0928125 -0.8253125 3.0928125 -2.6875 3.1875 C-6.05902745 3.61714598 -7.03562769 4.02710803 -9.875 6.1875 C-12.07121852 9.0942598 -13.10178043 11.48877804 -14 15 C-16 13 -16 13 -16.5625 9.75 C-15.88185776 5.21238504 -14.69862632 3.82647464 -11.15625 1.08984375 C-7.50006707 -0.75811828 -3.98459303 -0.48790935 0 0 Z " fill="#3A3A3A" transform="translate(199,352)"/>
<path d="M0 0 C0.66 0 1.32 0 2 0 C2.33772739 2.70784994 2.67030687 5.41616996 3 8.125 C3.09539063 8.88554688 3.19078125 9.64609375 3.2890625 10.4296875 C3.79830188 14.64909952 4.10888068 18.74004344 4 23 C2.68 23.33 1.36 23.66 0 24 C-1.38489368 19.04515817 -0.89120615 14.25410852 -0.5625 9.1875 C-0.51029297 8.30384766 -0.45808594 7.42019531 -0.40429688 6.50976562 C-0.27525381 4.33949592 -0.13840044 2.16969307 0 0 Z " fill="#414141" transform="translate(56,114)"/>
<path d="M0 0 C0.66 0.66 1.32 1.32 2 2 C2.99 2 3.98 2 5 2 C5.85039667 4.38111068 6.07366994 5.71350578 5.4375 8.1875 C4 10 4 10 0.875 10.75 C-0.548125 10.87375 -0.548125 10.87375 -2 11 C-3.5625 8.1875 -3.5625 8.1875 -5 5 C-4.67 4.01 -4.34 3.02 -4 2 C-3.01 2.33 -2.02 2.66 -1 3 C-0.67 2.01 -0.34 1.02 0 0 Z " fill="#333333" transform="translate(381,276)"/>
<path d="M0 0 C2.64 0 5.28 0 8 0 C7.67 1.65 7.34 3.3 7 5 C5.68 5 4.36 5 3 5 C2.67 5.66 2.34 6.32 2 7 C0.35 7 -1.3 7 -3 7 C-3.33 7.66 -3.66 8.32 -4 9 C-4 8.34 -4 7.68 -4 7 C-4.99 7 -5.98 7 -7 7 C-6.67 5.68 -6.34 4.36 -6 3 C-5.195625 2.87625 -4.39125 2.7525 -3.5625 2.625 C-2.716875 2.41875 -1.87125 2.2125 -1 2 C-0.67 1.34 -0.34 0.68 0 0 Z " fill="#313131" transform="translate(154,271)"/>
<path d="M0 0 C0.33 0 0.66 0 1 0 C1 7.59 1 15.18 1 23 C-0.32 23 -1.64 23 -3 23 C-3.02693575 20.87506859 -3.04636628 18.75004088 -3.0625 16.625 C-3.07410156 15.44164062 -3.08570312 14.25828125 -3.09765625 13.0390625 C-3 10 -3 10 -2 8 C-1.34 8 -0.68 8 0 8 C0 5.36 0 2.72 0 0 Z " fill="#D6D6D6" transform="translate(118,186)"/>
<path d="M0 0 C1.65 1.65 3.3 3.3 5 5 C1.93882432 7.62386487 1.26826873 8 -3 8 C-3.33 12.29 -3.66 16.58 -4 21 C-4.33 21 -4.66 21 -5 21 C-5.33 17.37 -5.66 13.74 -6 10 C-5.34 10 -4.68 10 -4 10 C-4 8.02 -4 6.04 -4 4 C-2.68 3.34 -1.36 2.68 0 2 C0 1.34 0 0.68 0 0 Z " fill="#585858" transform="translate(107,142)"/>
<path d="M0 0 C0.66 0 1.32 0 2 0 C2 0.66 2 1.32 2 2 C2.66 2.33 3.32 2.66 4 3 C3.34 3 2.68 3 2 3 C2 8.94 2 14.88 2 21 C1.01 21 0.02 21 -1 21 C-1 16.38 -1 11.76 -1 7 C-0.34 7 0.32 7 1 7 C0.67 4.69 0.34 2.38 0 0 Z " fill="#2B2B2B" transform="translate(290,357)"/>
<path d="M0 0 C4 1 4 1 5 2 C5.04092937 4.33297433 5.04241723 6.66705225 5 9 C4.34 9 3.68 9 3 9 C2.67 9.66 2.34 10.32 2 11 C2 10.34 2 9.68 2 9 C0.35 9 -1.3 9 -3 9 C-2.01 6.03 -1.02 3.06 0 0 Z " fill="#353535" transform="translate(437,168)"/>
<path d="M0 0 C0.33 0 0.66 0 1 0 C1.33 3.3 1.66 6.6 2 10 C0.68 10.33 -0.64 10.66 -2 11 C-2.99 14.465 -2.99 14.465 -4 18 C-4.33 18 -4.66 18 -5 18 C-5.3152595 12.01006953 -4.68219822 8.36439644 -2 3 C-1.34 3 -0.68 3 0 3 C0 2.01 0 1.02 0 0 Z " fill="#303030" transform="translate(367,154)"/>
<path d="M0 0 C6.26079448 -0.43177893 9.09075703 0.07260562 14 4 C13.67 4.99 13.34 5.98 13 7 C12.0409375 6.566875 12.0409375 6.566875 11.0625 6.125 C7.11589708 4.6752275 3.1125393 3.84221938 -1 3 C-0.67 2.01 -0.34 1.02 0 0 Z " fill="#3E3E3E" transform="translate(401,352)"/>
<path d="M0 0 C0.66 0 1.32 0 2 0 C2 1.65 2 3.3 2 5 C2.99 5.33 3.98 5.66 5 6 C5 6.66 5 7.32 5 8 C1.94736336 8.98120464 0.05263664 8.98120464 -3 8 C-3.33 8.99 -3.66 9.98 -4 11 C-5.65 10.67 -7.3 10.34 -9 10 C-6.47043472 6.9083091 -3.77545388 6.09068668 0 5 C0 3.35 0 1.7 0 0 Z " fill="#4C4C4C" transform="translate(142,185)"/>
<path d="M0 0 C0.66 0 1.32 0 2 0 C6.1479151 4.62652069 5.27510986 10.18193584 5 16 C4.67 16 4.34 16 4 16 C3.67 13.69 3.34 11.38 3 9 C2.01 9.33 1.02 9.66 0 10 C-1.37494222 7.73538929 -2.07991957 6.54345306 -1.6875 3.875 C-1 2 -1 2 0 0 Z " fill="#5B5B5B" transform="translate(163,180)"/>
<path d="M0 0 C0.66 0 1.32 0 2 0 C1.99214478 1.01368652 1.99214478 1.01368652 1.98413086 2.04785156 C1.96331993 5.11522489 1.95032671 8.18258333 1.9375 11.25 C1.92912109 12.31347656 1.92074219 13.37695312 1.91210938 14.47265625 C1.90888672 15.49746094 1.90566406 16.52226562 1.90234375 17.578125 C1.89448853 18.99206543 1.89448853 18.99206543 1.88647461 20.43457031 C1.99031918 22.78123437 2.33293471 24.75644478 3 27 C1.68 27.33 0.36 27.66 -1 28 C-1.02891949 23.70834738 -1.04677118 19.41671964 -1.0625 15.125 C-1.07087891 13.90167969 -1.07925781 12.67835938 -1.08789062 11.41796875 C-1.09111328 10.25136719 -1.09433594 9.08476562 -1.09765625 7.8828125 C-1.10289307 6.80402832 -1.10812988 5.72524414 -1.11352539 4.61376953 C-1 2 -1 2 0 0 Z " fill="#6C6C6C" transform="translate(434,183)"/>
<path d="M0 0 C3.96 0 7.92 0 12 0 C11.25 5.75 11.25 5.75 9 8 C8.67 6.35 8.34 4.7 8 3 C5.36 3 2.72 3 0 3 C0 2.01 0 1.02 0 0 Z " fill="#373737" transform="translate(405,365)"/>
<path d="M0 0 C0.99 0 1.98 0 3 0 C3.66 0.66 4.32 1.32 5 2 C4.67 2.66 4.34 3.32 4 4 C3.77532169 5.53668865 3.59203195 7.07968054 3.4375 8.625 C3.35371094 9.44226563 3.26992187 10.25953125 3.18359375 11.1015625 C3.12300781 11.72804687 3.06242188 12.35453125 3 13 C1.68 13 0.36 13 -1 13 C-0.67 8.71 -0.34 4.42 0 0 Z " fill="#D4D4D4" transform="translate(126,196)"/>
<path d="M0 0 C0.66 0 1.32 0 2 0 C5.39366878 5.37330889 5.32712342 9.86946489 5 16 C4.67 16 4.34 16 4 16 C4 13.69 4 11.38 4 9 C1.03 8.505 1.03 8.505 -2 8 C-1.125 2.25 -1.125 2.25 0 0 Z " fill="#646464" transform="translate(121,180)"/>
<path d="M0 0 C0 0.66 0 1.32 0 2 C0.66 2.33 1.32 2.66 2 3 C1.67 3.66 1.34 4.32 1 5 C-0.32 4.34 -1.64 3.68 -3 3 C-3.33 4.32 -3.66 5.64 -4 7 C-6.475 6.01 -6.475 6.01 -9 5 C-9 3.68 -9 2.36 -9 1 C-5.64919071 -1.10976881 -3.77897651 -1.0497157 0 0 Z " fill="#313131" transform="translate(146,295)"/>
<path d="M0 0 C2 3 2 3 1.5 5.5625 C-0.49682206 8.80733585 -2.38298755 9.13506224 -6 10 C-6.66 8.68 -7.32 7.36 -8 6 C-7.34 6 -6.68 6 -6 6 C-5.34 4.68 -4.68 3.36 -4 2 C-3.67 2.66 -3.34 3.32 -3 4 C-2.01 2.68 -1.02 1.36 0 0 Z " fill="#3B3B3B" transform="translate(342,280)"/>
<path d="M0 0 C0.99 0 1.98 0 3 0 C3.33 1.32 3.66 2.64 4 4 C3.01 4.33 2.02 4.66 1 5 C1 6.32 1 7.64 1 9 C-0.875 11.25 -0.875 11.25 -3 13 C-3.66 13 -4.32 13 -5 13 C-4.54554036 11.58208592 -4.08625056 10.16571954 -3.625 8.75 C-3.24214844 7.56664062 -3.24214844 7.56664062 -2.8515625 6.359375 C-2.04826333 4.13372042 -1.10288338 2.09068328 0 0 Z " fill="#424242" transform="translate(325,257)"/>
<path d="M0 0 C0.99 0 1.98 0 3 0 C3 2.64 3 5.28 3 8 C8.28 8 13.56 8 19 8 C19 8.33 19 8.66 19 9 C12.4 9 5.8 9 -1 9 C-0.67 6.03 -0.34 3.06 0 0 Z " fill="#2E2E2E" transform="translate(201,254)"/>
<path d="M0 0 C0.99 0 1.98 0 3 0 C3.69699552 1.45381897 4.38233866 2.91322953 5.0625 4.375 C5.63677734 5.59316406 5.63677734 5.59316406 6.22265625 6.8359375 C6.47917969 7.55007813 6.73570312 8.26421875 7 9 C6.67 9.66 6.34 10.32 6 11 C5.01 11 4.02 11 3 11 C3 9.68 3 8.36 3 7 C2.01 7.33 1.02 7.66 0 8 C-1.09658936 4.71023192 -0.79953138 3.28696233 0 0 Z " fill="#414141" transform="translate(334,266)"/>
<path d="M0 0 C1.79068573 2.6860286 2.66055791 4.6626589 3.625 7.6875 C3.88539063 8.49574219 4.14578125 9.30398438 4.4140625 10.13671875 C4.60742188 10.75160156 4.80078125 11.36648438 5 12 C4.34 12.66 3.68 13.32 3 14 C1.35 12.35 -0.3 10.7 -2 9 C-1.505 7.88625 -1.505 7.88625 -1 6.75 C0.22782871 3.86116688 0.22782871 3.86116688 0 0 Z " fill="#3D3D3D" transform="translate(344,285)"/>
<path d="M0 0 C0 0.33 0 0.66 0 1 C-1.65 1.33 -3.3 1.66 -5 2 C-5.33 2.99 -5.66 3.98 -6 5 C-10.33333333 8 -10.33333333 8 -13 8 C-13.33 7.01 -13.66 6.02 -14 5 C-9.15742979 0.94271144 -6.31225945 -0.14027243 0 0 Z " fill="#4A4A4A" transform="translate(406,351)"/>
<path d="M0 0 C0.33 0 0.66 0 1 0 C2.33257403 16.8929385 2.33257403 16.8929385 1 24 C-1.21336414 20.67995379 -1.20762974 19.92589068 -0.9765625 16.11328125 C-0.925 15.17548828 -0.8734375 14.23769531 -0.8203125 13.27148438 C-0.75585938 12.29501953 -0.69140625 11.31855469 -0.625 10.3125 C-0.56828125 9.32443359 -0.5115625 8.33636719 -0.453125 7.31835938 C-0.31166481 4.87817115 -0.16025726 2.43901409 0 0 Z " fill="#5B5B5B" transform="translate(273,14)"/>
<path d="M0 0 C0.33 0 0.66 0 1 0 C1.01981934 0.62044189 1.03963867 1.24088379 1.06005859 1.88012695 C1.15531845 4.69134537 1.26499302 7.50182166 1.375 10.3125 C1.4059375 11.28896484 1.436875 12.26542969 1.46875 13.27148438 C1.50742187 14.20927734 1.54609375 15.14707031 1.5859375 16.11328125 C1.6173584 16.97735596 1.6487793 17.84143066 1.68115234 18.73168945 C1.87188037 21.27742445 1.87188037 21.27742445 4 24 C4 24.99 4 25.98 4 27 C3.01 27 2.02 27 1 27 C-0.3308911 24.33821779 -0.11268993 22.31260604 -0.09765625 19.3359375 C-0.09443359 18.21445313 -0.09121094 17.09296875 -0.08789062 15.9375 C-0.07951172 14.761875 -0.07113281 13.58625 -0.0625 12.375 C-0.05798828 11.19164062 -0.05347656 10.00828125 -0.04882812 8.7890625 C-0.03701467 5.85932493 -0.02054258 2.92968728 0 0 Z " fill="#DBDBDB" transform="translate(419,201)"/>
<path d="M0 0 C0.33 0 0.66 0 1 0 C1.33 4.29 1.66 8.58 2 13 C0.68 13 -0.64 13 -2 13 C-2.16682272 8.07872966 -2.24828052 4.49656104 0 0 Z " fill="#D6D6D6" transform="translate(159,196)"/>
<path d="M0 0 C5.02705917 0.12047418 8.09872551 0.24587237 12.0625 3.5625 C12.701875 4.366875 13.34125 5.17125 14 6 C11.6875 6.625 11.6875 6.625 9 7 C6 5 6 5 5 2 C3.35 1.67 1.7 1.34 0 1 C0 0.67 0 0.34 0 0 Z " fill="#535353" transform="translate(506,351)"/>
<path d="M0 0 C0.66 0 1.32 0 2 0 C2.6708712 1.6232687 3.33657029 3.24867578 4 4.875 C4.556875 6.23238281 4.556875 6.23238281 5.125 7.6171875 C6 10 6 10 6 12 C5.01 11.67 4.02 11.34 3 11 C2.67 10.01 2.34 9.02 2 8 C1.01 8 0.02 8 -1 8 C-0.67 5.36 -0.34 2.72 0 0 Z " fill="#404040" transform="translate(183,313)"/>
<path d="M0 0 C1 4 1 4 1 4 Z M-1 4 C-0.01 4.33 0.98 4.66 2 5 C1.44271087 8.34373475 0.64826111 11.03312999 -1 14 C-2.9451 11.08235 -3.45276317 9.37462715 -4 6 C-3.34 6 -2.68 6 -2 6 C-1.67 5.34 -1.34 4.68 -1 4 Z " fill="#323232" transform="translate(219,290)"/>
<path d="M0 0 C0.33 0 0.66 0 1 0 C1 1.98 1 3.96 1 6 C2.32 6 3.64 6 5 6 C5.33 5.01 5.66 4.02 6 3 C6.66 3.33 7.32 3.66 8 4 C8.33 3.34 8.66 2.68 9 2 C9 2.99 9 3.98 9 5 C8.34 5 7.68 5 7 5 C7.99 6.485 7.99 6.485 9 8 C8.67 8.99 8.34 9.98 8 11 C8 10.34 8 9.68 8 9 C6.865625 8.855625 5.73125 8.71125 4.5625 8.5625 C1 8 1 8 0 7 C-0.04092937 4.66702567 -0.04241723 2.33294775 0 0 Z " fill="#2B2B2B" transform="translate(124,203)"/>
<path d="M0 0 C1.5625 1.6875 1.5625 1.6875 3 4 C2.875 6.625 2.875 6.625 2 9 C1.01 9.66 0.02 10.32 -1 11 C-1.66 9.68 -2.32 8.36 -3 7 C-2.34 6.67 -1.68 6.34 -1 6 C-1 4.68 -1 3.36 -1 2 C-0.67 1.34 -0.34 0.68 0 0 Z " fill="#3E3E3E" transform="translate(350,300)"/>
<path d="M0 0 C2.64 0 5.28 0 8 0 C8.66 1.98 9.32 3.96 10 6 C8.68 6.99 7.36 7.98 6 9 C5.34 8.34 4.68 7.68 4 7 C4 6.34 4 5.68 4 5 C4.66 5 5.32 5 6 5 C6.33 3.68 6.66 2.36 7 1 C4.69 1 2.38 1 0 1 C0 0.67 0 0.34 0 0 Z " fill="#565656" transform="translate(405,368)"/>
<path d="M0 0 C0.33 0 0.66 0 1 0 C1.33 3.96 1.66 7.92 2 12 C0.68 11.34 -0.64 10.68 -2 10 C-2 7.69 -2 5.38 -2 3 C-1.34 3 -0.68 3 0 3 C0 2.01 0 1.02 0 0 Z " fill="#303030" transform="translate(498,361)"/>
<path d="M0 0 C0.99 0 1.98 0 3 0 C2.34 3.63 1.68 7.26 1 11 C0.01 11 -0.98 11 -2 11 C-2.25 3.375 -2.25 3.375 0 0 Z " fill="#2F2F2F" transform="translate(80,357)"/>
<path d="M0 0 C2.64 0 5.28 0 8 0 C8.33 0.99 8.66 1.98 9 3 C4.545 3.495 4.545 3.495 0 4 C0 2.68 0 1.36 0 0 Z " fill="#353535" transform="translate(503,352)"/>
<path d="M0 0 C2.375 0.1875 2.375 0.1875 5 1 C6.375 3.375 6.375 3.375 7 6 C6.67 6.99 6.34 7.98 6 9 C5.01 9 4.02 9 3 9 C2.814375 8.071875 2.814375 8.071875 2.625 7.125 C2.12802644 4.80879168 2.12802644 4.80879168 0 3 C0 2.01 0 1.02 0 0 Z " fill="#3F3F3F" transform="translate(554,184)"/>
<path d="M0 0 C0.99 0.33 1.98 0.66 3 1 C3.125 6.75 3.125 6.75 2 9 C1.34 9 0.68 9 0 9 C0 9.66 0 10.32 0 11 C-0.99 11.33 -1.98 11.66 -3 12 C-2 8 -1 4 0 0 Z " fill="#313131" transform="translate(206,362)"/>
<path d="M0 0 C-0.33 3.63 -0.66 7.26 -1 11 C-3.57230512 8.42769488 -5.38119834 6.23760332 -7 3 C-4.74624683 0.74624683 -3.20799182 0 0 0 Z " fill="#434343" transform="translate(229,152)"/>
<path d="M0 0 C2 2 2 2 2.0625 5.875 C2.03349609 6.93847656 2.03349609 6.93847656 2.00390625 8.0234375 C1.99969257 10.15555915 2.32585508 11.97756523 3 14 C2.01 14 1.02 14 0 14 C0 9.38 0 4.76 0 0 Z " fill="#383838" transform="translate(289,364)"/>
<path d="M0 0 C1.82421875 1.21484375 1.82421875 1.21484375 3.6875 2.9375 C4.31011719 3.50339844 4.93273438 4.06929688 5.57421875 4.65234375 C6.04472656 5.09707031 6.51523437 5.54179687 7 6 C6.34 6.66 5.68 7.32 5 8 C-1.875 4.375 -1.875 4.375 -3 1 C-2.01 0.67 -1.02 0.34 0 0 Z " fill="#3F3F3F" transform="translate(54,287)"/>
<path d="M0 0 C0.66 0 1.32 0 2 0 C2 0.99 2 1.98 2 3 C2.66 3.33 3.32 3.66 4 4 C3.67 4.66 3.34 5.32 3 6 C-0.3 6 -3.6 6 -7 6 C-7 5.67 -7 5.34 -7 5 C-5.824375 4.87625 -5.824375 4.87625 -4.625 4.75 C-1.85250896 4.27193661 -1.85250896 4.27193661 -0.6875 1.9375 C-0.460625 1.298125 -0.23375 0.65875 0 0 Z " fill="#EDEDED" transform="translate(426,247)"/>
<path d="M0 0 C0.99 1.485 0.99 1.485 2 3 C2.99 3 3.98 3 5 3 C5 5.31 5 7.62 5 10 C4.67 9.34 4.34 8.68 4 8 C3.01 8.33 2.02 8.66 1 9 C0 8 0 8 -0.09765625 6.15234375 C-0.06510417 4.1015625 -0.03255208 2.05078125 0 0 Z " fill="#414141" transform="translate(361,165)"/>
<path d="M0 0 C4.8 2.46153846 4.8 2.46153846 5.8125 5.1875 C5.874375 5.785625 5.93625 6.38375 6 7 C3.50935112 7.68707555 1.62113708 8 -1 8 C-0.67 5.36 -0.34 2.72 0 0 Z " fill="#2F2F2F" transform="translate(317,278)"/>
<path d="M0 0 C0.33 0 0.66 0 1 0 C1.125 6.75 1.125 6.75 0 9 C-0.99 9 -1.98 9 -3 9 C-3.33 10.32 -3.66 11.64 -4 13 C-4.66 13 -5.32 13 -6 13 C-5.67 10.69 -5.34 8.38 -5 6 C-3.35 6 -1.7 6 0 6 C0 4.02 0 2.04 0 0 Z " fill="#5B5B5B" transform="translate(24,220)"/>
<path d="M0 0 C0.33 0 0.66 0 1 0 C1 3.3 1 6.6 1 10 C0.01 10 -0.98 10 -2 10 C-2.1953125 3.9453125 -2.1953125 3.9453125 -2 2 C-1.34 1.34 -0.68 0.68 0 0 Z " fill="#D9D9D9" transform="translate(214,199)"/>
<path d="M0 0 C0.33 0 0.66 0 1 0 C1.10477512 5.78591511 0.99250545 11.29309366 0 17 C-2.60018816 13.09971775 -2.15085514 9.52565431 -2 5 C-1.67 5 -1.34 5 -1 5 C-0.67 3.35 -0.34 1.7 0 0 Z " fill="#3E3E3E" transform="translate(274,30)"/>
<path d="M0 0 C2.31 0.33 4.62 0.66 7 1 C6.67 4.96 6.34 8.92 6 13 C5.67 13 5.34 13 5 13 C5 9.7 5 6.4 5 3 C3.35 3.33 1.7 3.66 0 4 C0 2.68 0 1.36 0 0 Z " fill="#424242" transform="translate(442,211)"/>
<path d="M0 0 C1.875 0.1875 1.875 0.1875 4 1 C5.3125 3.4375 5.3125 3.4375 6 6 C5.67 6.66 5.34 7.32 5 8 C4.01 7.67 3.02 7.34 2 7 C2 6.01 2 5.02 2 4 C1.34 3.67 0.68 3.34 0 3 C0 2.01 0 1.02 0 0 Z " fill="#3F3F3F" transform="translate(66,186)"/>
<path d="M0 0 C3.875 0.875 3.875 0.875 5 2 C5.04063832 3.66617115 5.042721 5.33388095 5 7 C4.67 6.34 4.34 5.68 4 5 C2.68 5.33 1.36 5.66 0 6 C-1.125 2.25 -1.125 2.25 0 0 Z " fill="#4A4A4A" transform="translate(437,168)"/>
<path d="M0 0 C0.66 0 1.32 0 2 0 C2.33 4.62 2.66 9.24 3 14 C2.67 13.34 2.34 12.68 2 12 C1.34 12 0.68 12 0 12 C0 8.04 0 4.08 0 0 Z " fill="#6D6D6D" transform="translate(56,114)"/>
<path d="M0 0 C0.33 0 0.66 0 1 0 C1.33 1.65 1.66 3.3 2 5 C2.66 4.34 3.32 3.68 4 3 C3.67 5.64 3.34 8.28 3 11 C2.01 10.67 1.02 10.34 0 10 C0 6.7 0 3.4 0 0 Z " fill="#525252" transform="translate(182,360)"/>
<path d="M0 0 C0.66 0 1.32 0 2 0 C2 2.64 2 5.28 2 8 C0.68 8 -0.64 8 -2 8 C-2.125 5.125 -2.125 5.125 -2 2 C-1.34 1.34 -0.68 0.68 0 0 Z " fill="#353535" transform="translate(164,189)"/>
<path d="M0 0 C1.65 0.33 3.3 0.66 5 1 C4.37240135 3.92879371 3.41377341 6.36095629 2 9 C1.87625 8.195625 1.7525 7.39125 1.625 6.5625 C1.315625 5.2940625 1.315625 5.2940625 1 4 C0.34 3.67 -0.32 3.34 -1 3 C-0.67 2.01 -0.34 1.02 0 0 Z " fill="#3E3E3E" transform="translate(299,55)"/>
<path d="M0 0 C2.64 0 5.28 0 8 0 C8.33 0.99 8.66 1.98 9 3 C6.03 3 3.06 3 0 3 C0 2.01 0 1.02 0 0 Z " fill="#434343" transform="translate(263,49)"/>
<path d="M0 0 C2.475 0.99 2.475 0.99 5 2 C5 3.65 5 5.3 5 7 C4.01 7 3.02 7 2 7 C0.5393715 4.35261084 0 3.10551666 0 0 Z " fill="#373737" transform="translate(303,368)"/>
<path d="M0 0 C2.31 0 4.62 0 7 0 C7.33 0.99 7.66 1.98 8 3 C3.545 3.495 3.545 3.495 -1 4 C-0.67 2.68 -0.34 1.36 0 0 Z " fill="#313131" transform="translate(192,352)"/>
<path d="M0 0 C0.99 0.33 1.98 0.66 3 1 C3 4.63 3 8.26 3 12 C0.9375 9.9375 0.9375 9.9375 -1 7 C-0.75 3.1875 -0.75 3.1875 0 0 Z " fill="#EEEEEE" transform="translate(533,320)"/>
<path d="M0 0 C2 1 2 1 3 3 C0.47524538 4.26237731 -1.31200466 4.09856404 -4.125 4.0625 C-5.03507812 4.05347656 -5.94515625 4.04445313 -6.8828125 4.03515625 C-7.58148438 4.02355469 -8.28015625 4.01195312 -9 4 C-6.04245816 2.5086438 -3.13948098 1.07403297 0 0 Z " fill="#2D2D2D" transform="translate(408,374)"/>
<path d="M0 0 C1.32 0 2.64 0 4 0 C3.6875 1.875 3.6875 1.875 3 4 C0 6 0 6 -3 6 C-3 4 -3 4 -1 2 C-0.67 1.34 -0.34 0.68 0 0 Z " fill="#EDEDED" transform="translate(408,369)"/>
<path d="M0 0 C0.99 0.99 1.98 1.98 3 3 C2.34 4.98 1.68 6.96 1 9 C-0.625 7.3125 -0.625 7.3125 -2 5 C-1.1875 2.25 -1.1875 2.25 0 0 Z " fill="#3B3B3B" transform="translate(305,322)"/>
<path d="M0 0 C1.8871875 0.0309375 1.8871875 0.0309375 3.8125 0.0625 C2.8125 2.0625 2.8125 2.0625 0.5625 3.1875 C-2.20363295 4.06763321 -4.30798351 4.2270438 -7.1875 4.0625 C-7.1875 3.0725 -7.1875 2.0825 -7.1875 1.0625 C-4.43671116 0.14557039 -2.82801087 -0.04636083 0 0 Z " fill="#404040" transform="translate(52.1875,318.9375)"/>
<path d="M0 0 C0.33 0.66 0.66 1.32 1 2 C1.99 2.33 2.98 2.66 4 3 C3.67 3.99 3.34 4.98 3 6 C-0.10551666 6 -1.35261084 5.4606285 -4 4 C-3.67 3.34 -3.34 2.68 -3 2 C-2.01 2 -1.02 2 0 2 C0 1.34 0 0.68 0 0 Z " fill="#2F2F2F" transform="translate(409,284)"/>
<path d="M0 0 C2.31 0 4.62 0 7 0 C7 0.99 7 1.98 7 3 C4.36 3 1.72 3 -1 3 C-0.67 2.01 -0.34 1.02 0 0 Z " fill="#2E2E2E" transform="translate(401,352)"/>
<path d="M0 0 C2.97 0.495 2.97 0.495 6 1 C5.01 1.495 5.01 1.495 4 2 C3.34786708 4.02463255 3.34786708 4.02463255 3 6 C2.01 6 1.02 6 0 6 C-1.125 2.25 -1.125 2.25 0 0 Z " fill="#2D2D2D" transform="translate(338,298)"/>
<path d="M0 0 C2.62386487 3.06117568 3 3.73173127 3 8 C1.68 8.33 0.36 8.66 -1 9 C-1.33 8.34 -1.66 7.68 -2 7 C-1.34 7 -0.68 7 0 7 C0 6.34 0 5.68 0 5 C-0.99 5 -1.98 5 -3 5 C-3 4.34 -3 3.68 -3 3 C-2.34 3 -1.68 3 -1 3 C-0.67 2.01 -0.34 1.02 0 0 Z " fill="#2C2C2C" transform="translate(100,281)"/>
<path d="M0 0 C0.66 0.99 1.32 1.98 2 3 C2.66 2.34 3.32 1.68 4 1 C3.67 2.65 3.34 4.3 3 6 C1.68 6.33 0.36 6.66 -1 7 C-1.99 5.68 -2.98 4.36 -4 3 C-2.68 3 -1.36 3 0 3 C0 2.01 0 1.02 0 0 Z " fill="#494949" transform="translate(464,221)"/>
<path d="M0 0 C1.98 1.65 3.96 3.3 6 5 C5.01 5.99 4.02 6.98 3 8 C2.34 7.67 1.68 7.34 1 7 C1 6.01 1 5.02 1 4 C0.6937566 2.66018514 0.36548445 1.32488113 0 0 Z " fill="#3C3C3C" transform="translate(368,178)"/>
<path d="M0 0 C0.33 0 0.66 0 1 0 C1 3.3 1 6.6 1 10 C-0.32 10.33 -1.64 10.66 -3 11 C-2.25 3.375 -2.25 3.375 0 0 Z " fill="#2A2A2A" transform="translate(274,40)"/>
<path d="M0 0 C0.99 0.495 0.99 0.495 2 1 C2 1.99 2 2.98 2 4 C1.34 4 0.68 4 0 4 C0 2.68 0 1.36 0 0 Z M-2 1 C-0.68 2.65 0.64 4.3 2 6 C1.01 6.33 0.02 6.66 -1 7 C-1.66 6.67 -2.32 6.34 -3 6 C-2.67 4.35 -2.34 2.7 -2 1 Z " fill="#2F2F2F" transform="translate(354,321)"/>
<path d="M0 0 C0.99 0 1.98 0 3 0 C3 0.66 3 1.32 3 2 C2.34 2 1.68 2 1 2 C0.67 4.31 0.34 6.62 0 9 C-0.99 9 -1.98 9 -3 9 C-2.01 6.03 -1.02 3.06 0 0 Z " fill="#444444" transform="translate(299,319)"/>
<path d="M0 0 C0.66 0 1.32 0 2 0 C2.33 1.65 2.66 3.3 3 5 C1.35 5.66 -0.3 6.32 -2 7 C-1.34 4.69 -0.68 2.38 0 0 Z " fill="#484848" transform="translate(121,180)"/>
<path d="M0 0 C0.99 0.33 1.98 0.66 3 1 C2.67 3.97 2.34 6.94 2 10 C1.67 10 1.34 10 1 10 C1 8.02 1 6.04 1 4 C-0.32 3.67 -1.64 3.34 -3 3 C-2.01 3 -1.02 3 0 3 C0 2.01 0 1.02 0 0 Z " fill="#606060" transform="translate(83,201)"/>
<path d="M0 0 C2.2477975 2.05233685 3.0022242 3.00667261 4 6 C3.01 5.67 2.02 5.34 1 5 C0.34 5.99 -0.32 6.98 -1 8 C-1.93065133 5.39417629 -2.14917407 4.35801776 -1.0625 1.75 C-0.711875 1.1725 -0.36125 0.595 0 0 Z " fill="#3D3D3D" transform="translate(75,197)"/>
<path d="M0 0 C0.66 0 1.32 0 2 0 C2.33 3.3 2.66 6.6 3 10 C2.01 10 1.02 10 0 10 C0 6.7 0 3.4 0 0 Z M-2 10 C0 11 0 11 0 11 Z " fill="#2A2A2A" transform="translate(123,189)"/>
<path d="M0 0 C0.66 0 1.32 0 2 0 C2 3.3 2 6.6 2 10 C1.34 9.67 0.68 9.34 0 9 C-1.28571429 2.57142857 -1.28571429 2.57142857 0 0 Z " fill="#8C8C8C" transform="translate(434,183)"/>
<path d="M0 0 C0 0.66 0 1.32 0 2 C-2.64 2 -5.28 2 -8 2 C-8.33 1.34 -8.66 0.68 -9 0 C-5.67465243 -1.10844919 -3.37817425 -0.84454356 0 0 Z " fill="#505050" transform="translate(200,377)"/>
<path d="M0 0 C0.33 0 0.66 0 1 0 C1 1.98 1 3.96 1 6 C1.66 6 2.32 6 3 6 C3.33 6.99 3.66 7.98 4 9 C3.01 9.495 3.01 9.495 2 10 C1.01 9.34 0.02 8.68 -1 8 C-0.67 5.36 -0.34 2.72 0 0 Z " fill="#393939" transform="translate(79,362)"/>
<path d="M0 0 C0 0.33 0 0.66 0 1 C-1.65 1 -3.3 1 -5 1 C-5.28875 1.61875 -5.5775 2.2375 -5.875 2.875 C-7 5 -7 5 -9 7 C-9.1875 4.625 -9.1875 4.625 -9 2 C-5.5647952 -0.29013653 -4.014669 -0.17842973 0 0 Z " fill="#DCDCDC" transform="translate(35,357)"/>
<path d="M0 0 C1.65 0 3.3 0 5 0 C4.6875 1.9375 4.6875 1.9375 4 4 C3.01 4.33 2.02 4.66 1 5 C0.67 3.35 0.34 1.7 0 0 Z " fill="#3E3E3E" transform="translate(366,253)"/>
<path d="M0 0 C0.33 0 0.66 0 1 0 C0.25 6.75 0.25 6.75 -2 9 C-2.33 7.02 -2.66 5.04 -3 3 C-2.01 2.67 -1.02 2.34 0 2 C0 1.34 0 0.68 0 0 Z " fill="#F1F1F1" transform="translate(158,194)"/>
<path d="M0 0 C0.99 0.33 1.98 0.66 3 1 C1.25 4.875 1.25 4.875 -1 6 C-1 5.01 -1 4.02 -1 3 C-1.66 2.67 -2.32 2.34 -3 2 C-2.01 1.34 -1.02 0.68 0 0 Z " fill="#4A4A4A" transform="translate(100,371)"/>
<path d="M0 0 C0.33 0.66 0.66 1.32 1 2 C1.66 2 2.32 2 3 2 C2.6875 3.9375 2.6875 3.9375 2 6 C1.01 6.33 0.02 6.66 -1 7 C-0.67 4.69 -0.34 2.38 0 0 Z " fill="#3D3D3D" transform="translate(249,324)"/>
<path d="M0 0 C0.66 0 1.32 0 2 0 C2 0.99 2 1.98 2 3 C2.66 3.33 3.32 3.66 4 4 C3.34 4 2.68 4 2 4 C2 4.99 2 5.98 2 7 C1.34 7 0.68 7 0 7 C0 6.01 0 5.02 0 4 C-0.66 3.67 -1.32 3.34 -2 3 C-1.34 3 -0.68 3 0 3 C0 2.01 0 1.02 0 0 Z " fill="#7C7C7C" transform="translate(365,139)"/>
<path d="M0 0 C2.875 -0.125 2.875 -0.125 6 0 C8 2 8 2 8 4 C5.125 3.6875 5.125 3.6875 2 3 C1.34 2.01 0.68 1.02 0 0 Z " fill="#424242" transform="translate(480,183)"/>
<path d="M0 0 C1.32 0 2.64 0 4 0 C4.33 0.99 4.66 1.98 5 3 C4.34 3 3.68 3 3 3 C3 3.66 3 4.32 3 5 C2.34 5 1.68 5 1 5 C0.67 3.35 0.34 1.7 0 0 Z " fill="#2D2D2D" transform="translate(361,173)"/>
<path d="M0 0 C1.98 0.495 1.98 0.495 4 1 C3.67 1.99 3.34 2.98 3 4 C1.68 4 0.36 4 -1 4 C-0.67 2.68 -0.34 1.36 0 0 Z " fill="#313131" transform="translate(104,145)"/>
</svg>
