<?xml version="1.0" encoding="UTF-8"?>
<svg version="1.1" xmlns="http://www.w3.org/2000/svg" width="1272" height="249">
<path d="M0 0 C419.76 0 839.52 0 1272 0 C1272 82.17 1272 164.34 1272 249 C852.24 249 432.48 249 0 249 C0 166.83 0 84.66 0 0 Z " fill="rgb(95, 158, 160)" transform="translate(0,0)"/>
<path d="M0 0 C419.76 0 839.52 0 1272 0 C1272 22.11 1272 44.22 1272 67 C1268.35321037 68.45871585 1265.44187017 69.44550714 1261.6796875 70.2265625 C1260.60920166 70.44973145 1259.53871582 70.67290039 1258.43579102 70.90283203 C1257.26072998 71.14114746 1256.08566895 71.37946289 1254.875 71.625 C1253.62452881 71.88007324 1252.37405762 72.13514648 1251.08569336 72.39794922 C1223.553698 77.97511944 1196.02761515 83.21966811 1168.13183594 86.60742188 C1163.49387726 87.18879368 1158.87342794 87.87672839 1154.25 88.5625 C1074.12239264 100.09706644 992.91281161 101.22630504 912.1875 97.1875 C910.92523716 97.12510761 910.92523716 97.12510761 909.63747406 97.06145477 C887.52533649 95.96519555 865.49189556 94.39854369 843.45040894 92.32247925 C839.83742579 91.98480562 836.22313336 91.66814383 832.60757446 91.35960388 C808.70655126 89.30647463 784.89992682 86.37371785 761.09318924 83.45061111 C758.49399669 83.131927 755.89459345 82.81501574 753.2951355 82.49850464 C731.87075004 79.8851775 710.51756921 76.95049237 689.18167877 73.69279957 C678.65920151 72.08676641 668.12562613 70.62604306 657.5625 69.3125 C647.97793828 68.1174305 638.46161445 66.7864303 628.95736694 65.05781555 C623.21790038 64.01848221 617.47638031 63.2021009 611.6875 62.5 C604.6951683 61.61817775 597.71650553 60.69227545 590.75 59.625 C580.29023379 58.02687651 569.81666075 56.52834798 559.34008789 55.04516602 C552.14039797 54.0249214 544.9424408 52.99685231 537.75080872 51.92106628 C516.7712717 48.78377196 495.77339326 46.0758168 474.6875 43.75 C472.9915419 43.56281906 472.9915419 43.56281906 471.26132202 43.37185669 C456.85227514 41.78955757 442.43526303 40.32146397 428 39 C427.08936798 38.91623108 426.17873596 38.83246216 425.24050903 38.74615479 C419.45260337 38.21541096 413.66356907 37.69926041 407.87329102 37.19506836 C405.92837584 37.02443339 403.98370685 36.85096683 402.03930664 36.67456055 C373.10646664 34.05316965 344.19793383 33.81164911 315.16992188 33.81469727 C311.33165726 33.81477801 307.49351333 33.80789951 303.65527344 33.79418945 C282.63225498 33.72032959 261.66555196 33.92895192 240.6640625 34.94921875 C239.32316622 35.01404418 239.32316622 35.01404418 237.95518112 35.08017921 C235.4276515 35.20523934 232.9005523 35.3364427 230.37353516 35.47143555 C229.64030659 35.50943708 228.90707802 35.54743862 228.1516304 35.58659172 C223.39762316 35.85555718 218.72138428 36.38266285 214 37 C212.07306865 37.12202457 210.14437224 37.21924676 208.21484375 37.2890625 C189.20927971 38.13509929 170.33327562 39.99821842 151.42988968 42.08635712 C149.41516033 42.30808031 147.40012478 42.52678501 145.38497925 42.74468994 C128.0685929 44.62997369 110.91850504 47.00752498 93.74633789 49.89550781 C87.86584877 50.87899179 81.97823447 51.70040447 76.0625 52.4375 C55.83967227 55.09795789 35.7309012 59.06280533 15.96557617 64.08325195 C14.55949097 64.43842896 14.55949097 64.43842896 13.125 64.80078125 C12.32320312 65.00872314 11.52140625 65.21666504 10.6953125 65.4309082 C7.16977464 66.17529487 3.57544153 66.55306981 0 67 C0 44.89 0 22.78 0 0 Z " fill="rgb(245, 240, 240)" transform="translate(0,0)"/>
</svg>
