<?xml version="1.0" encoding="UTF-8"?>
<svg version="1.1" xmlns="http://www.w3.org/2000/svg" width="800" height="492">
<path d="M0 0 C264 0 528 0 800 0 C800 162.36 800 324.72 800 492 C536 492 272 492 0 492 C0 329.64 0 167.28 0 0 Z " fill="rgb(255, 248, 220)" transform="translate(0,0)"/>
<path d="M0 0 C1.75570313 0.01353516 1.75570313 0.01353516 3.546875 0.02734375 C4.43890625 0.03894531 5.3309375 0.05054688 6.25 0.0625 C6.26981934 0.83811279 6.28963867 1.61372559 6.31005859 2.4128418 C6.57093409 12.29800517 6.88904932 22.18050693 7.25 32.0625 C7.2768689 32.80375122 7.30373779 33.54500244 7.3314209 34.30871582 C8.0415082 53.50654685 9.44531174 72.5423554 11.6875 91.625 C11.79082642 92.50539948 11.89415283 93.38579895 12.00061035 94.2928772 C14.01811586 111.2896238 16.3494698 128.25819858 19.625 145.0625 C19.83342529 146.14337891 20.04185059 147.22425781 20.2565918 148.33789062 C21.9839174 157.10808471 24.06313454 165.76213748 26.33203125 174.40625 C27.25 178.0625 27.25 178.0625 27.25 180.0625 C27.99121094 179.8459375 28.73242188 179.629375 29.49609375 179.40625 C36.10816296 177.65813868 42.36033218 176.69965459 49.1875 176.5625 C49.89640381 176.53220703 50.60530762 176.50191406 51.33569336 176.47070312 C55.8395785 176.46644665 58.60668236 177.39364094 61.88989258 180.52050781 C64.27689027 183.2267145 66.22872477 186.12379002 68.125 189.1875 C68.5271875 189.80753906 68.929375 190.42757812 69.34375 191.06640625 C72.25 195.66302615 72.25 195.66302615 72.25 199.0625 C71.41359985 199.12195801 71.41359985 199.12195801 70.56030273 199.18261719 C58.69785957 200.06483689 47.61625296 201.46580552 36.25 205.0625 C36.91008878 209.33697735 38.37628939 212.92952606 40.125 216.875 C41.7601757 220.5890409 43.38110473 224.2797611 44.6875 228.125 C50.11222446 242.92540431 59.86793107 257.44521269 69.59765625 269.76953125 C71.25 272.0625 71.25 272.0625 71.25 274.0625 C72.0853125 274.371875 72.0853125 274.371875 72.9375 274.6875 C76.22012371 276.63933032 77.95673246 279.00480994 80.25 282.0625 C80.25 282.7225 80.25 283.3825 80.25 284.0625 C47.1165683 290.88743676 47.1165683 290.88743676 40.875 286.875 C38.25 284.0625 38.25 284.0625 38.25 280.0625 C37.66347656 279.97355469 37.07695312 279.88460938 36.47265625 279.79296875 C33.66765863 278.8711154 32.59186987 277.61167603 30.6875 275.375 C30.10871094 274.71113281 29.52992188 274.04726563 28.93359375 273.36328125 C27.00192061 270.72347735 25.68326781 268.00179033 24.25 265.0625 C23.25180978 263.37644801 22.25329252 261.69054598 21.2421875 260.01220703 C17.72697377 254.13887076 15.19509938 248.9144705 14.25 242.0625 C13.59 242.0625 12.93 242.0625 12.25 242.0625 C12.09144531 241.52625 11.93289063 240.99 11.76953125 240.4375 C10.60953205 236.54092811 9.44164425 232.65147261 8.18359375 228.78515625 C6.81715701 224.55957465 5.51585666 220.31917173 4.25 216.0625 C3.98670898 215.18110352 3.72341797 214.29970703 3.45214844 213.39160156 C-2.80185984 192.02556862 -6.116137 170.23349438 -9.41729736 148.2598877 C-9.8364644 145.49143203 -10.27568815 142.726284 -10.71484375 139.9609375 C-12.63308058 127.43605144 -13.69743844 114.79879167 -14.875 102.1875 C-15.0050795 100.81526779 -15.0050795 100.81526779 -15.13778687 99.41531372 C-17.34107662 75.96381652 -17.90211157 52.60836375 -17.8125 29.0625 C-17.8074649 26.71484473 -17.80290562 24.36718838 -17.79882812 22.01953125 C-17.78800481 16.36716344 -17.77143246 10.71483705 -17.75 5.0625 C-11.35656904 1.25103155 -7.54056491 -0.07540565 0 0 Z " fill="#EB313C" transform="translate(404.75,63.9375)"/>
<path d="M0 0 C9.86931624 5.21041843 15.35918779 14.95958873 18.81640625 25.31640625 C26.52180264 53.62925809 24.90211289 84.13833957 17.65625 112.40234375 C18.40346313 111.97151489 18.40346313 111.97151489 19.16577148 111.53198242 C21.47039122 110.20953731 23.78194495 108.89968443 26.09375 107.58984375 C26.87685547 107.13802734 27.65996094 106.68621094 28.46679688 106.22070312 C33.71336936 103.26275897 38.87143257 101.081472 44.65625 99.40234375 C47.90869638 108.18394898 49.71393893 117.26263631 51.65625 126.40234375 C50.82222656 126.83804688 49.98820312 127.27375 49.12890625 127.72265625 C42.39076421 131.28854585 35.84422704 134.93096499 29.65625 139.40234375 C28.69460938 140.09714844 27.73296875 140.79195312 26.7421875 141.5078125 C13.65254971 151.1711404 2.22935283 161.84259456 -7.30859375 175.06860352 C-8.06269531 176.11165649 -8.06269531 176.11165649 -8.83203125 177.17578125 C-9.27071533 177.79888184 -9.70939941 178.42198242 -10.16137695 179.06396484 C-10.55156006 179.50562988 -10.94174316 179.94729492 -11.34375 180.40234375 C-12.00375 180.40234375 -12.66375 180.40234375 -13.34375 180.40234375 C-13.6325 181.14484375 -13.92125 181.88734375 -14.21875 182.65234375 C-15.16677644 184.96974172 -16.19220911 187.1815149 -17.34375 189.40234375 C-22.27526338 188.96910799 -25.28644426 186.46478865 -28.90625 183.33984375 C-29.4839917 182.84468262 -30.0617334 182.34952148 -30.65698242 181.83935547 C-35.64966331 177.40730402 -38.55983272 173.51790945 -39.84375 166.77734375 C-39.12418519 163.35941092 -37.48977482 161.11643397 -35.34375 158.40234375 C-34.68375 158.40234375 -34.02375 158.40234375 -33.34375 158.40234375 C-33.1375 157.63921875 -32.93125 156.87609375 -32.71875 156.08984375 C-31.16920422 151.9342437 -29.14476143 148.26541048 -26.98828125 144.3984375 C-24.80091003 140.41336926 -22.78117861 136.35524279 -20.7734375 132.27734375 C-19.9073716 130.53574675 -19.02198518 128.80333502 -18.1015625 127.08984375 C-0.14609133 93.29130977 3.29594104 55.86199478 2.65625 18.40234375 C-5.06845631 20.3735977 -5.06845631 20.3735977 -11.84375 24.40234375 C-12.4728125 24.89734375 -13.101875 25.39234375 -13.75 25.90234375 C-15.57900613 27.51069028 -15.57900613 27.51069028 -17.34375 30.40234375 C-24.92834673 26.94208994 -33.8972314 20.21549225 -37.34375 12.40234375 C-37.25764825 8.98518045 -36.66537684 7.73305609 -34.26953125 5.26953125 C-22.40365858 -3.77620128 -14.10851449 -6.56336821 0 0 Z " fill="#29A5F1" transform="translate(358.34375,155.59765625)"/>
<path d="M0 0 C9.85667898 5.2037467 15.43402086 14.99200162 18.8125 25.375 C22.92300068 40.1233242 23.01173337 54.16213355 22.65625 69.40234375 C21.66625 69.73234375 20.67625 70.06234375 19.65625 70.40234375 C17.96697606 67.02379588 18.22970949 63.2572147 18.03125 59.52734375 C17.9796875 58.71136719 17.928125 57.89539063 17.875 57.0546875 C17.83117187 56.26449219 17.78734375 55.47429687 17.7421875 54.66015625 C17.7014209 53.93973145 17.6606543 53.21930664 17.61865234 52.47705078 C17.65625 50.40234375 17.65625 50.40234375 18.18212891 48.35888672 C18.91913285 45.31751203 18.10254985 42.47065523 17.65625 39.40234375 C17.98625 38.41234375 18.31625 37.42234375 18.65625 36.40234375 C18.34818547 34.32586499 18.34818547 34.32586499 17.71875 32.21484375 C17.368125 30.95671875 17.0175 29.69859375 16.65625 28.40234375 C13.68625 28.40234375 10.71625 28.40234375 7.65625 28.40234375 C7.800625 29.53027344 7.945 30.65820312 8.09375 31.8203125 C9.56832171 44.06241188 9.8769404 56.0804633 9.65625 68.40234375 C7.01625 68.40234375 4.37625 68.40234375 1.65625 68.40234375 C1.7277124 67.45617187 1.7991748 66.51 1.87280273 65.53515625 C2.61417393 55.14381542 2.77820269 44.81665982 2.71875 34.40234375 C2.7137149 32.83724105 2.70915562 31.27213674 2.70507812 29.70703125 C2.69425474 25.93876109 2.67710616 22.17057118 2.65625 18.40234375 C-5.06845631 20.3735977 -5.06845631 20.3735977 -11.84375 24.40234375 C-12.4728125 24.89734375 -13.101875 25.39234375 -13.75 25.90234375 C-15.57900613 27.51069028 -15.57900613 27.51069028 -17.34375 30.40234375 C-24.92834673 26.94208994 -33.8972314 20.21549225 -37.34375 12.40234375 C-37.25764825 8.98518045 -36.66537684 7.73305609 -34.26953125 5.26953125 C-22.40365858 -3.77620128 -14.10851449 -6.56336821 0 0 Z " fill="#1D3A90" transform="translate(358.34375,155.59765625)"/>
<path d="M0 0 C0.89135742 2.28491211 0.89135742 2.28491211 1.60546875 5.27734375 C1.86650391 6.34791016 2.12753906 7.41847656 2.39648438 8.52148438 C2.65751953 9.64876953 2.91855469 10.77605469 3.1875 11.9375 C3.46013672 13.06091797 3.73277344 14.18433594 4.01367188 15.34179688 C6 23.6206532 6 23.6206532 6 26 C4.74896484 26.65355469 4.74896484 26.65355469 3.47265625 27.3203125 C-3.26548579 30.8862021 -9.81202296 34.52862124 -16 39 C-16.96164062 39.69480469 -17.92328125 40.38960938 -18.9140625 41.10546875 C-31.70867161 50.55702137 -43.41331753 61.26971704 -53 74 C-53 70.87837499 -52.63547445 69.97425568 -51.171875 67.33984375 C-50.78386719 66.62763672 -50.39585937 65.91542969 -49.99609375 65.18164062 C-49.37927734 64.07079102 -49.37927734 64.07079102 -48.75 62.9375 C-45.32948385 56.77054337 -42.54152943 50.57551264 -40 44 C-39.31386842 42.31998666 -38.62376114 40.64159154 -37.9296875 38.96484375 C-37.59066406 38.13533203 -37.25164062 37.30582031 -36.90234375 36.45117188 C-36.21495828 34.76929906 -35.5222046 33.0896107 -34.82421875 31.41210938 C-33.16838582 27.33596892 -31.87518177 23.60743908 -31.1953125 19.25390625 C-30.30584205 14.92000198 -28.53319644 12.94844209 -25.03710938 10.32275391 C-21.54533506 8.05544407 -17.96191234 6.0693683 -14.25 4.1875 C-13.49589844 3.79369141 -12.74179687 3.39988281 -11.96484375 2.99414062 C-3.76080163 -1.25360054 -3.76080163 -1.25360054 0 0 Z " fill="#069BE3" transform="translate(404,256)"/>
<path d="M0 0 C3.63 -0.103125 7.26 -0.20625 11 -0.3125 C12.69189453 -0.38078003 12.69189453 -0.38078003 14.41796875 -0.45043945 C21.04360883 -0.54096962 26.09380576 0.25498682 31 5 C33.80881138 9.75101929 33.78543093 14.61863168 33 20 C31.34505254 23.17454605 29.24648722 25.37675639 26 27 C27.5814236 33.00940966 30.74649223 37.7660962 34 43 C29.71 43 25.42 43 21 43 C20.62488281 42.14535156 20.24976563 41.29070312 19.86328125 40.41015625 C19.35152344 39.30542969 18.83976562 38.20070313 18.3125 37.0625 C17.81363281 35.96035156 17.31476563 34.85820312 16.80078125 33.72265625 C16.20652344 32.82417969 15.61226563 31.92570312 15 31 C13.35 30.67 11.7 30.34 10 30 C10 34.29 10 38.58 10 43 C6.7 43 3.4 43 0 43 C0 28.81 0 14.62 0 0 Z " fill="#0A0A0A" transform="translate(393,375)"/>
<path d="M0 0 C3.815625 -0.103125 7.63125 -0.20625 11.5625 -0.3125 C13.34636108 -0.38078003 13.34636108 -0.38078003 15.16625977 -0.45043945 C22.15534171 -0.54163465 25.89213934 0.10233937 31 5 C34.30525819 9.55960825 33.68829367 15.64421486 33 21 C31.30618706 24.89425742 28.47852908 26.71288255 24.875 28.875 C20.06956187 30.69701756 15.0550486 30.18722402 10 30 C10 34.29 10 38.58 10 43 C6.7 43 3.4 43 0 43 C0 28.81 0 14.62 0 0 Z " fill="#090909" transform="translate(310,375)"/>
<path d="M0 0 C4.29 0 8.58 0 13 0 C13.37511719 1.29292969 13.75023437 2.58585937 14.13671875 3.91796875 C16.75420253 12.84527382 19.43241837 21.64284809 22.921875 30.2734375 C24.67311284 34.70229262 26 38.19447428 26 43 C22.37 43 18.74 43 15 43 C14.67 41.02 14.34 39.04 14 37 C8.72 37 3.44 37 -2 37 C-2.33 38.98 -2.66 40.96 -3 43 C-6.3 43 -9.6 43 -13 43 C-12.3908448 37.5239157 -11.05951506 32.64493636 -9.27734375 27.44140625 C-9.01240616 26.65225327 -8.74746857 25.86310028 -8.47450256 25.05003357 C-7.63449458 22.55223852 -6.78614657 20.05737155 -5.9375 17.5625 C-5.36337702 15.86021322 -4.78980368 14.15774095 -4.21679688 12.45507812 C-2.81754566 8.30121323 -1.4108123 4.14995182 0 0 Z " fill="#0A0A0A" transform="translate(359,375)"/>
<path d="M0 0 C1.06335571 -0.04543945 1.06335571 -0.04543945 2.14819336 -0.09179688 C6.6520785 -0.09605335 9.41918236 0.83114094 12.70239258 3.95800781 C15.08939027 6.6642145 17.04122477 9.56129002 18.9375 12.625 C19.3396875 13.24503906 19.741875 13.86507812 20.15625 14.50390625 C23.0625 19.10052615 23.0625 19.10052615 23.0625 22.5 C22.51013672 22.53963867 21.95777344 22.57927734 21.38867188 22.62011719 C9.23794196 23.53117026 -2.22992148 25.0887395 -13.9375 28.5 C-16.1834701 23.47455957 -18.01139886 18.44754721 -19.625 13.1875 C-19.84994141 12.47271484 -20.07488281 11.75792969 -20.30664062 11.02148438 C-21.9375 5.76208682 -21.9375 5.76208682 -21.9375 3.5 C-14.60883574 1.35875549 -7.61681234 0.15301818 0 0 Z " fill="#56B258" transform="translate(453.9375,240.5)"/>
<path d="M0 0 C0 2.97 0 5.94 0 9 C-4.95 9 -9.9 9 -15 9 C-15.33 10.32 -15.66 11.64 -16 13 C-15.20335937 13.30292969 -14.40671875 13.60585938 -13.5859375 13.91796875 C0.18043973 19.36087945 0.18043973 19.36087945 3 25 C3.55334456 30.4163919 3.50285843 34.58899309 0 39 C-2.3066653 41.83090742 -4.56409946 42.82520711 -8 44 C-14.62493335 44.67338635 -20.65907668 43.914241 -27 42 C-27 38.7 -27 35.4 -27 32 C-26.21625 32.33 -25.4325 32.66 -24.625 33 C-19.81262778 34.32755096 -13.62853285 35.31426642 -9 33 C-9.04759031 30.56138593 -9.04759031 30.56138593 -10 28 C-12.5849102 26.51447308 -12.5849102 26.51447308 -15.75 25.5625 C-21.23730306 23.44596882 -24.22026006 22.26165059 -27 17 C-27.74051221 12.39401407 -27.5251683 8.45193588 -25.9375 4.0625 C-19.65141082 -2.62914332 -8.30615629 -2.76871876 0 0 Z " fill="#0A0A0A" transform="translate(487,375)"/>
<path d="M0 0 C3.63 0 7.26 0 11 0 C11 14.19 11 28.38 11 43 C7.37 43 3.74 43 0 43 C0 28.81 0 14.62 0 0 Z " fill="#0D0D0D" transform="translate(437,375)"/>
<path d="M0 0 C0.99 0 1.98 0 3 0 C3.01981934 0.77561279 3.03963867 1.55122559 3.06005859 2.3503418 C3.49768747 18.93309133 4.11232275 35.49741721 5 52.0625 C5.04179382 52.86086273 5.08358765 53.65922546 5.12664795 54.48178101 C5.24736366 56.77062758 5.37277854 59.05916299 5.5 61.34765625 C5.5721875 62.65742432 5.644375 63.96719238 5.71875 65.31665039 C5.90628672 67.77269764 6.17550076 70.22385468 6.52514648 72.66210938 C6.93238922 75.52474312 7.11650251 78.17511582 7.09765625 81.05859375 C7.09282227 82.37827148 7.09282227 82.37827148 7.08789062 83.72460938 C7.07951172 84.61986328 7.07113281 85.51511719 7.0625 86.4375 C7.05798828 87.35982422 7.05347656 88.28214844 7.04882812 89.23242188 C7.03713938 91.48835048 7.02075455 93.74413967 7 96 C5.02 96 3.04 96 1 96 C0.94607603 93.22890693 0.90636545 90.45886182 0.875 87.6875 C0.85824219 86.90181641 0.84148437 86.11613281 0.82421875 85.30664062 C0.81455078 84.1706543 0.81455078 84.1706543 0.8046875 83.01171875 C0.79421387 82.31522217 0.78374023 81.61872559 0.77294922 80.90112305 C1 79 1 79 3 76 C2.34 75.34 1.68 74.68 1 74 C0.82580677 71.08890642 0.76828922 68.28360393 0.8125 65.375 C0.81314453 64.59253906 0.81378906 63.81007812 0.81445312 63.00390625 C0.84238527 59.26099863 1.03111495 55.80949251 1.63671875 52.1015625 C2.08748566 48.88556697 1.76398289 46.36639983 1.0703125 43.19921875 C-0.65134048 34.82388337 -0.21136259 26.32084426 -0.125 17.8125 C-0.11494761 16.08008331 -0.10582576 14.34766096 -0.09765625 12.61523438 C-0.07582749 8.41001414 -0.04142299 4.205071 0 0 Z " fill="#E30734" transform="translate(408,64)"/>
<path d="M0 0 C0 2.31 0 4.62 0 7 C-0.556875 6.608125 -1.11375 6.21625 -1.6875 5.8125 C-4.07451671 4.69014558 -4.07451671 4.69014558 -6.6875 6.0625 C-9.21317603 7.81922119 -9.21317603 7.81922119 -9.8125 10.6875 C-9.9053125 11.8321875 -9.9053125 11.8321875 -10 13 C-9.34 13 -8.68 13 -8 13 C-8.08378906 14.01320313 -8.16757812 15.02640625 -8.25390625 16.0703125 C-8.35714841 17.42184621 -8.4599918 18.77341042 -8.5625 20.125 C-8.64661133 21.12273437 -8.64661133 21.12273437 -8.73242188 22.140625 C-9.03765906 26.29185073 -8.77869128 29.92465951 -8 34 C-7.61220521 40.96890053 -7.98520618 48.09689635 -9 55 C-9.495 55.495 -9.495 55.495 -10 56 C-10.36760731 58.32817964 -10.70241581 60.6618385 -11 63 C-10.34 63 -9.68 63 -9 63 C-9.66 64.32 -10.32 65.64 -11 67 C-14.40543837 60.18912327 -13.13366598 50.29025086 -13.09765625 42.8671875 C-13.0962413 41.74933868 -13.09482635 40.63148987 -13.09336853 39.47976685 C-13.08781622 35.94481617 -13.07527279 32.40993121 -13.0625 28.875 C-13.05747883 26.46354259 -13.05291701 24.05208417 -13.04882812 21.640625 C-13.03786246 15.76039463 -13.02117253 9.88020201 -13 4 C-5.49107143 -0.53571429 -5.49107143 -0.53571429 0 0 Z " fill="#E30B28" transform="translate(400,65)"/>
<path d="M0 0 C6.72416892 3.55985413 10.56353963 11.38873868 14 18 C14 18.99 14 19.98 14 21 C9.38 21 4.76 21 0 21 C-0.66 19.68 -1.32 18.36 -2 17 C-0.35 17 1.3 17 3 17 C2.7525 15.88625 2.7525 15.88625 2.5 14.75 C2 12 2 12 2 8 C-3.38490641 7.08342019 -8.54230189 6.88861841 -14 7 C-14 5.02 -14 3.04 -14 1 C-9.33905918 -0.55364694 -4.86343472 -0.56763431 0 0 Z " fill="#73B827" transform="translate(462,241)"/>
<path d="M0 0 C4.81035973 4.3730543 8.59926143 9.46277438 12 15 C12 15.66 12 16.32 12 17 C12.556875 17.20625 13.11375 17.4125 13.6875 17.625 C16.97012371 19.57683032 18.70673246 21.94230994 21 25 C21 25.66 21 26.32 21 27 C-10.5879906 33.50660156 -10.5879906 33.50660156 -16.40625 30.9375 C-18.375 29.5625 -18.375 29.5625 -21 27 C-20 25 -20 25 -17 23 C-16.67 23.99 -16.34 24.98 -16 26 C-16.33 26.66 -16.66 27.32 -17 28 C-16.38125 28.309375 -15.7625 28.61875 -15.125 28.9375 C-13.75 29.625 -12.375 30.3125 -11 31 C-11 30.01 -11 29.02 -11 28 C-7.25 26.875 -7.25 26.875 -5 28 C-3.08596924 28.19668734 -3.08596924 28.19668734 -1 28.1875 C0.051875 28.20876953 0.051875 28.20876953 1.125 28.23046875 C3.24524938 28.16512323 3.24524938 28.16512323 5 26 C5.99 26 6.98 26 8 26 C8.66 24.35 9.32 22.7 10 21 C9.34 20.34 8.68 19.68 8 19 C8 18.01 8 17.02 8 16 C6.68 15.34 5.36 14.68 4 14 C4.33 12.02 4.66 10.04 5 8 C3.35 8 1.7 8 0 8 C0 5.36 0 2.72 0 0 Z " fill="#FBD00F" transform="translate(464,321)"/>
<path d="M0 0 C0.89135742 2.28491211 0.89135742 2.28491211 1.60546875 5.27734375 C1.99702148 6.88319336 1.99702148 6.88319336 2.39648438 8.52148438 C2.78803711 10.21241211 2.78803711 10.21241211 3.1875 11.9375 C3.46013672 13.06091797 3.73277344 14.18433594 4.01367188 15.34179688 C6 23.6206532 6 23.6206532 6 26 C0.54230769 29.10096154 0.54230769 29.10096154 -2.203125 28.58984375 C-2.79609375 28.39519531 -3.3890625 28.20054687 -4 28 C-4.02685938 25.85423363 -4.04633088 23.70837355 -4.0625 21.5625 C-4.07410156 20.36753906 -4.08570313 19.17257812 -4.09765625 17.94140625 C-4 15 -4 15 -3 14 C-3.25335353 10.97980236 -3.25335353 10.97980236 -4 8 C-4.66 7.67 -5.32 7.34 -6 7 C-5.67 6.67 -5.34 6.34 -5 6 C-9.28843701 5.80053781 -12.06236117 6.40365993 -16 8 C-16.99 7.67 -17.98 7.34 -19 7 C-16.40163864 5.63354299 -13.79734444 4.28169331 -11.1875 2.9375 C-10.44951172 2.54755859 -9.71152344 2.15761719 -8.95117188 1.75585938 C-8.23896484 1.39169922 -7.52675781 1.02753906 -6.79296875 0.65234375 C-6.1383667 0.31195068 -5.48376465 -0.02844238 -4.80932617 -0.37915039 C-3 -1 -3 -1 0 0 Z " fill="#08A4D7" transform="translate(404,256)"/>
<path d="M0 0 C0.33 0.99 0.66 1.98 1 3 C1.66 3 2.32 3 3 3 C6.30215383 16.36586076 6.33472527 29.29514591 6 43 C3.36 43 0.72 43 -2 43 C-1.01 21.715 -1.01 21.715 0 0 Z " fill="#0F61B9" transform="translate(362,181)"/>
<path d="M0 0 C0.33 0 0.66 0 1 0 C1.0825 1.051875 1.165 2.10375 1.25 3.1875 C2.08743767 7.44447481 3.03058706 8.9114133 6 12 C8.93046585 13.57835425 8.93046585 13.57835425 12.125 14.6875 C17.82778865 16.82778865 17.82778865 16.82778865 20 19 C19.75 21.5625 19.75 21.5625 19 24 C16.56045342 25.21977329 14.84694151 25.20153813 12.125 25.25 C11.26132812 25.27578125 10.39765625 25.3015625 9.5078125 25.328125 C6.48966259 24.93322688 5.1813276 24.09329196 3 22 C2.67 21.01 2.34 20.02 2 19 C2.66 19 3.32 19 4 19 C3.67 17.35 3.34 15.7 3 14 C2.01 15.485 2.01 15.485 1 17 C1.66 17.33 2.32 17.66 3 18 C2.34 18 1.68 18 1 18 C0.67 18.66 0.34 19.32 0 20 C0 19.01 0 18.02 0 17 C-0.66 16.67 -1.32 16.34 -2 16 C-2.20674944 10.21101581 -1.59162079 5.57067277 0 0 Z " fill="#E6E6E6" transform="translate(459,385)"/>
<path d="M0 0 C0.99 0 1.98 0 3 0 C3.02505615 0.88558594 3.0501123 1.77117187 3.07592773 2.68359375 C3.19367941 6.7891489 3.31438511 10.89460255 3.4375 15 C3.45956512 15.73718262 3.48163025 16.47436523 3.50436401 17.23388672 C3.78046704 26.33818773 4.16345514 35.41337193 4.8125 44.5 C5.16052038 50.99638047 5.07783125 57.49676635 5 64 C4.34 62.68 3.68 61.36 3 60 C2.34 61.32 1.68 62.64 1 64 C0.92682969 59.9024628 0.96020416 56.24275462 1.625 52.1875 C2.07442399 48.98344324 1.77334473 46.57810566 1.03125 43.4375 C-0.5989878 34.96520354 -0.2121875 26.40211392 -0.125 17.8125 C-0.11494761 16.08008331 -0.10582576 14.34766096 -0.09765625 12.61523438 C-0.07582749 8.41001414 -0.04142299 4.205071 0 0 Z " fill="#E5162F" transform="translate(408,64)"/>
<path d="M0 0 C2.03244628 3.04866942 2.92745026 5.51421333 4 9 C4.33 10.051875 4.66 11.10375 5 12.1875 C7.47544277 21.62512558 8.27351246 30.43708557 8.125 40.1875 C8.11597656 41.33025391 8.10695313 42.47300781 8.09765625 43.65039062 C8.07436393 46.4338231 8.04165999 49.21679229 8 52 C6.515 52.495 6.515 52.495 5 53 C3.31072606 49.62145213 3.57345949 45.85487095 3.375 42.125 C3.3234375 41.30902344 3.271875 40.49304688 3.21875 39.65234375 C3.17492187 38.86214844 3.13109375 38.07195312 3.0859375 37.2578125 C3.0451709 36.5373877 3.0044043 35.81696289 2.96240234 35.07470703 C3 33 3 33 3.52587891 30.95654297 C4.26288285 27.91516828 3.44629985 25.06831148 3 22 C3.33 21.01 3.66 20.02 4 19 C3.80323764 16.95879802 3.80323764 16.95879802 3.25 14.875 C3.09015625 14.17117187 2.9303125 13.46734375 2.765625 12.7421875 C2.51296875 12.16726562 2.2603125 11.59234375 2 11 C1.01 10.67 0.02 10.34 -1 10 C-0.835 9.0925 -0.67 8.185 -0.5 7.25 C0.10137146 3.88912497 0.10137146 3.88912497 0 0 Z " fill="#1A71C8" transform="translate(373,173)"/>
<path d="M0 0 C-3.28463659 2.18975773 -6.20696275 2.99806563 -10 4 C-10 4.99 -10 5.98 -10 7 C-10.165 8.2375 -10.33 9.475 -10.5 10.75 C-10.99807682 14.53818987 -11.07953449 18.18234436 -11 22 C-6.46167247 23.81602517 -6.46167247 23.81602517 -2 23 C-0.68 23.66 0.64 24.32 2 25 C-4.435 26.485 -4.435 26.485 -11 28 C-13.2459701 22.97455957 -15.07389886 17.94754721 -16.6875 12.6875 C-16.91244141 11.97271484 -17.13738281 11.25792969 -17.36914062 10.52148438 C-19 5.26208682 -19 5.26208682 -19 3 C-16.96040523 2.49161436 -14.91820862 1.99366114 -12.875 1.5 C-11.73804688 1.2215625 -10.60109375 0.943125 -9.4296875 0.65625 C-6.18533302 0.03546235 -3.29185543 -0.12006768 0 0 Z " fill="#4BAF82" transform="translate(451,241)"/>
<path d="M0 0 C1.20272819 2.40545638 1.10071472 3.94996953 1.0625 6.625 C1.05347656 7.44226563 1.04445313 8.25953125 1.03515625 9.1015625 C1.02355469 9.72804688 1.01195312 10.35453125 1 11 C0.01 11 -0.98 11 -2 11 C-2.12375 11.5775 -2.2475 12.155 -2.375 12.75 C-3.00648824 15.02335767 -3.88858191 16.9253529 -5 19 C-5.66 19 -6.32 19 -7 19 C-7 21.64 -7 24.28 -7 27 C-7.78375 27.0825 -8.5675 27.165 -9.375 27.25 C-12.14749104 27.72806339 -12.14749104 27.72806339 -13.3125 30.0625 C-13.539375 30.701875 -13.76625 31.34125 -14 32 C-13.34 32 -12.68 32 -12 32 C-12 32.99 -12 33.98 -12 35 C-10.35 35 -8.7 35 -7 35 C-7 37.66666667 -7 40.33333333 -7 43 C-10.56310166 41.57628203 -11.9275463 40.03428998 -13.75 36.6875 C-14.17796875 35.92824219 -14.6059375 35.16898437 -15.046875 34.38671875 C-16.12649688 31.68323937 -16.30825534 29.88639095 -16 27 C-14.125 23.6875 -14.125 23.6875 -12 21 C-11.34 21 -10.68 21 -10 21 C-9.690625 19.8553125 -9.690625 19.8553125 -9.375 18.6875 C-7.77575417 14.39861345 -5.67118671 10.57306828 -3.4375 6.5859375 C-2.23043322 4.41452933 -1.08974149 2.23187439 0 0 Z " fill="#60CAFA" transform="translate(335,293)"/>
<path d="M0 0 C0.66 0.33 1.32 0.66 2 1 C2 1.99 2 2.98 2 4 C4.475 4.495 4.475 4.495 7 5 C6.42523514 9.54447413 6.42523514 9.54447413 4.57421875 11.52734375 C3.95160156 11.99269531 3.32898438 12.45804687 2.6875 12.9375 C-3.7061899 18.15493729 -8.74148516 24.681018 -14 31 C-14 27.87837499 -13.63547445 26.97425568 -12.171875 24.33984375 C-11.78580078 23.63279297 -11.39972656 22.92574219 -11.00195312 22.19726562 C-10.58880859 21.45154297 -10.17566406 20.70582031 -9.75 19.9375 C-6.68329561 14.296869 -3.86174108 8.73217927 -1.65625 2.6875 C-1 1 -1 1 0 0 Z " fill="#1681D3" transform="translate(365,299)"/>
<path d="M0 0 C0.33 0.99 0.66 1.98 1 3 C-0.29327628 5.02613283 -1.6296945 7.02514795 -3 9 C-3.35169068 10.32860925 -3.68770276 11.66158328 -4 13 C-5.4375 15.25 -5.4375 15.25 -7 17 C-7.66 17 -8.32 17 -9 17 C-9.433125 18.11375 -9.433125 18.11375 -9.875 19.25 C-10.82302644 21.56739797 -11.84845911 23.77917115 -13 26 C-17.14064481 25.47788717 -19.25452847 24.31033918 -22.3125 21.5 C-23.00988281 20.8709375 -23.70726562 20.241875 -24.42578125 19.59375 C-26 18 -26 18 -26 17 C-23.03 17 -20.06 17 -17 17 C-17 18.32 -17 19.64 -17 21 C-16.67 19.68 -16.34 18.36 -16 17 C-14.02 16.67 -12.04 16.34 -10 16 C-10 13.03 -10 10.06 -10 7 C-9.01 7.33 -8.02 7.66 -7 8 C-6.54625 7.505 -6.0925 7.01 -5.625 6.5 C-4 5 -4 5 -2 5 C-1.855625 4.360625 -1.71125 3.72125 -1.5625 3.0625 C-1 1 -1 1 0 0 Z " fill="#7FD9F8" transform="translate(354,319)"/>
<path d="M0 0 C1.65 0 3.3 0 5 0 C6.00508801 1.78881736 7.00392736 3.58114696 8 5.375 C8.8353125 6.87160156 8.8353125 6.87160156 9.6875 8.3984375 C11 11 11 11 11 13 C15.62 12.67 20.24 12.34 25 12 C25 12.66 25 13.32 25 14 C22.3753399 14.19430855 19.75053235 14.38073238 17.125 14.5625 C16.00544922 14.64661133 16.00544922 14.64661133 14.86328125 14.73242188 C9.2265625 15.11328125 9.2265625 15.11328125 7 14 C5.32345271 14.27942455 3.65391846 14.60828247 2 15 C2 15.66 2 16.32 2 17 C1.34 17 0.68 17 0 17 C0 11.39 0 5.78 0 0 Z " fill="#E7E7E7" transform="translate(403,405)"/>
<path d="M0 0 C8.36923077 -0.36923077 8.36923077 -0.36923077 11.5625 1.5 C12.036875 1.995 12.51125 2.49 13 3 C12.25 9.75 12.25 9.75 10 12 C7.6171875 12.1953125 7.6171875 12.1953125 4.875 12.125 C2.461875 12.063125 2.461875 12.063125 0 12 C0 8.04 0 4.08 0 0 Z " fill="#E9E9E9" transform="translate(320,384)"/>
<path d="M0 0 C2.31 0 4.62 0 7 0 C7 2.31 7 4.62 7 7 C9.52174919 8.4472136 9.52174919 8.4472136 15 8 C15 12.95 15 17.9 15 23 C10.92400466 19.73920373 9.38408899 18.38221204 7.11328125 14.07421875 C5.28662898 10.67087714 3.20354777 7.42058587 1.171875 4.13671875 C0 2 0 2 0 0 Z " fill="#FAB80B" transform="translate(425,320)"/>
<path d="M0 0 C1.588125 -0.061875 3.17625 -0.12375 4.8125 -0.1875 C6.15248047 -0.23970703 6.15248047 -0.23970703 7.51953125 -0.29296875 C10 0 10 0 11.80078125 1.35546875 C13.50731102 3.69569361 13.42408618 5.1727588 13 8 C11.80078125 9.64453125 11.80078125 9.64453125 10 11 C7.51953125 11.29296875 7.51953125 11.29296875 4.8125 11.1875 C3.224375 11.125625 1.63625 11.06375 0 11 C0 7.37 0 3.74 0 0 Z " fill="#E6E6E6" transform="translate(403,384)"/>
<path d="M0 0 C0.99 0.33 1.98 0.66 3 1 C3.33 2.65 3.66 4.3 4 6 C4.66 6 5.32 6 6 6 C6 5.01 6 4.02 6 3 C6.66 3 7.32 3 8 3 C8 13.56 8 24.12 8 35 C5.79714435 31.69571652 4.93320094 28.60691316 4 24.8125 C3.82629883 24.11576172 3.65259766 23.41902344 3.47363281 22.70117188 C1.68640546 15.21024147 0.77338736 7.65246444 0 0 Z " fill="#E70B72" transform="translate(400,237)"/>
<path d="M0 0 C7.77803736 -0.47378908 14.33503439 -0.41043179 21 4 C23.5625 6.75 23.5625 6.75 25 9 C22.85138629 8.53958278 21.10617779 8.06005699 19.18457031 6.97314453 C16.55736512 5.80282268 14.66550009 5.77133139 11.796875 5.8046875 C10.8171875 5.81113281 9.8375 5.81757813 8.828125 5.82421875 C7.81234375 5.84097656 6.7965625 5.85773438 5.75 5.875 C4.71875 5.88402344 3.6875 5.89304688 2.625 5.90234375 C0.08309713 5.92587989 -2.4583328 5.95875977 -5 6 C-5 4.68 -5 3.36 -5 2 C-3.35 1.67 -1.7 1.34 0 1 C0 0.67 0 0.34 0 0 Z " fill="#1F328B" transform="translate(340,153)"/>
<path d="M0 0 C0.66 0.33 1.32 0.66 2 1 C2 2.32 2 3.64 2 5 C4.31 5 6.62 5 9 5 C9.7943655 8.66215958 10.29178179 12.26795606 10.625 16 C10.72039062 17.010625 10.81578125 18.02125 10.9140625 19.0625 C10.99713598 21.90210252 10.67698564 24.25164039 10 27 C7.2289312 24.65408148 6.47940716 22.85223799 5.8125 19.3125 C5.57466797 18.10013672 5.57466797 18.10013672 5.33203125 16.86328125 C5.22246094 16.24839844 5.11289062 15.63351562 5 15 C4.34 15 3.68 15 3 15 C2.5196682 13.41701974 2.04078388 11.83360022 1.5625 10.25 C1.29566406 9.36828125 1.02882813 8.4865625 0.75390625 7.578125 C-0.65534805 2.75891341 -0.65534805 2.75891341 -1 1 C-0.67 0.67 -0.34 0.34 0 0 Z " fill="#F36A36" transform="translate(414,291)"/>
<path d="M0 0 C2.73689933 5.01678602 3.80727396 10.4920862 5.1875 16 C5.47302734 17.093125 5.75855469 18.18625 6.05273438 19.3125 C6.31763672 20.364375 6.58253906 21.41625 6.85546875 22.5 C7.09934326 23.4590625 7.34321777 24.418125 7.59448242 25.40625 C8.0006203 28.00396755 7.84884139 29.54013671 7 32 C7 31.34 7 30.68 7 30 C6.01 29.67 5.02 29.34 4 29 C4.33 28.34 4.66 27.68 5 27 C3.35 26.67 1.7 26.34 0 26 C-0.69380038 22.27082295 -1.10247482 18.79156816 -1 15 C-1 13.28121005 -1.00713622 11.56231154 -1.03515625 9.84375 C-1.04417969 9.0703125 -1.05320312 8.296875 -1.0625 7.5 C-1.07410156 6.7265625 -1.08570313 5.953125 -1.09765625 5.15625 C-1 3 -1 3 0 0 Z " fill="#E6026A" transform="translate(425,218)"/>
<path d="M0 0 C1.32 0.33 2.64 0.66 4 1 C4 1.66 4 2.32 4 3 C6.64 2.67 9.28 2.34 12 2 C12.33 4.64 12.66 7.28 13 10 C9.93882432 12.62386487 9.26826873 13 5 13 C4.67 13.99 4.34 14.98 4 16 C4 15.01 4 14.02 4 13 C3.34 13 2.68 13 2 13 C1.66307215 11.39658445 1.33058907 9.79223445 1 8.1875 C0.814375 7.29417969 0.62875 6.40085938 0.4375 5.48046875 C0 3 0 3 0 0 Z " fill="#1B449C" transform="translate(361,171)"/>
<path d="M0 0 C0 2.31 0 4.62 0 7 C-0.556875 6.608125 -1.11375 6.21625 -1.6875 5.8125 C-4.07451671 4.69014558 -4.07451671 4.69014558 -6.6875 6.0625 C-9.21317603 7.81922119 -9.21317603 7.81922119 -9.8125 10.6875 C-9.9053125 11.8321875 -9.9053125 11.8321875 -10 13 C-9.34 13 -8.68 13 -8 13 C-8.96355353 25.66970387 -8.96355353 25.66970387 -10 31 C-10.33 31 -10.66 31 -11 31 C-11.81778878 25.22271798 -12.21111395 19.58290717 -12.25 13.75 C-12.270625 12.96109375 -12.29125 12.1721875 -12.3125 11.359375 C-12.33595272 7.88837276 -12.32927733 5.61594229 -10.671875 2.515625 C-7.43530572 -0.41846117 -4.14944117 -0.0922098 0 0 Z " fill="#E30B1A" transform="translate(400,65)"/>
<path d="M0 0 C0.33 0 0.66 0 1 0 C1.19755404 9.28503973 1.14738936 18.44719541 0.125 27.6875 C0.04652832 28.41630371 -0.03194336 29.14510742 -0.11279297 29.89599609 C-0.65890103 34.43781226 -1.63771229 38.63266588 -3 43 C-4.66077117 40.08655402 -5.249124 38.00957088 -5.23046875 34.6640625 C-5.22853516 33.84679687 -5.22660156 33.02953125 -5.22460938 32.1875 C-5.21236328 31.341875 -5.20011719 30.49625 -5.1875 29.625 C-5.18685547 28.78710938 -5.18621094 27.94921875 -5.18554688 27.0859375 C-5.1539341 22.61799887 -4.89499224 18.3962019 -4 14 C-2.02 14.495 -2.02 14.495 0 15 C0 10.05 0 5.1 0 0 Z " fill="#2F8ED9" transform="translate(381,210)"/>
<path d="M0 0 C0.99 0 1.98 0 3 0 C3.29132813 0.59425781 3.58265625 1.18851562 3.8828125 1.80078125 C7.09351045 8.29285288 10.49412364 14.66291765 14 21 C11.69 21 9.38 21 7 21 C7.04125 20.13375 7.0825 19.2675 7.125 18.375 C6.99542279 14.87641532 6.23980344 12.25448403 5 9 C4.21625 9.66 3.4325 10.32 2.625 11 C0 13 0 13 -2 13 C-2.05447047 11.58376784 -2.09300508 10.16691809 -2.125 8.75 C-2.14820313 7.96109375 -2.17140625 7.1721875 -2.1953125 6.359375 C-1.9828378 3.79268059 -1.28654105 2.2083933 0 0 Z " fill="#F28A3E" transform="translate(450,299)"/>
<path d="M0 0 C0.91678247 2.63426133 1.62560616 5.10915848 2.25 7.8125 C2.435625 8.53759766 2.62125 9.26269531 2.8125 10.00976562 C3.75384687 13.90708431 3.99122651 16.03509395 3 20 C1.35 16.04 -0.3 12.08 -2 8 C-2.66 8.66 -3.32 9.32 -4 10 C-4 9.34 -4 8.68 -4 8 C-4.66 7.67 -5.32 7.34 -6 7 C-5.67 6.67 -5.34 6.34 -5 6 C-9.28843701 5.80053781 -12.06236117 6.40365993 -16 8 C-16.99 7.67 -17.98 7.34 -19 7 C-16.40163864 5.63354299 -13.79734444 4.28169331 -11.1875 2.9375 C-10.44951172 2.54755859 -9.71152344 2.15761719 -8.95117188 1.75585938 C-8.23896484 1.39169922 -7.52675781 1.02753906 -6.79296875 0.65234375 C-6.1383667 0.31195068 -5.48376465 -0.02844238 -4.80932617 -0.37915039 C-3 -1 -3 -1 0 0 Z " fill="#19A1C8" transform="translate(404,256)"/>
<path d="M0 0 C3.39327816 3.82004013 4.85915639 8.35233663 6.625 13.0625 C6.93695313 13.87783203 7.24890625 14.69316406 7.5703125 15.53320312 C8.76812191 18.67487133 9.93661863 21.8098559 11 25 C9.02 25.99 9.02 25.99 7 27 C6.896875 25.906875 6.79375 24.81375 6.6875 23.6875 C6.02692273 20.14440371 5.7972908 19.06756277 3 17 C3 17.99 3 18.98 3 20 C3 20.66 3 21.32 3 22 C1.68 21.67 0.36 21.34 -1 21 C-0.91621094 20.32453125 -0.83242188 19.6490625 -0.74609375 18.953125 C-0.64425781 18.06109375 -0.54242188 17.1690625 -0.4375 16.25 C-0.33308594 15.36828125 -0.22867187 14.4865625 -0.12109375 13.578125 C-0.00397465 11.08462151 -0.37444743 9.38491916 -1 7 C-0.72686657 4.65885633 -0.40197001 2.32249342 0 0 Z " fill="#F1504A" transform="translate(441,274)"/>
<path d="M0 0 C2 2 2 2 2.23046875 4.3125 C2.21628906 5.199375 2.20210938 6.08625 2.1875 7 C2.18105469 7.886875 2.17460937 8.77375 2.16796875 9.6875 C2 12 2 12 1 14 C1.08885 17.03344954 1.08885 17.03344954 2 20 C3.95163118 21.43637698 3.95163118 21.43637698 6 22 C3.63202009 24.61724095 1.10399646 26.32861729 -2 28 C-2.66 28 -3.32 28 -4 28 C-3.25577054 21.81494737 -2.37295916 15.65881247 -1.4375 9.5 C-1.29892578 8.5821875 -1.16035156 7.664375 -1.01757812 6.71875 C-0.67928688 4.47902869 -0.3400766 2.2394508 0 0 Z " fill="#E4EDF2" transform="translate(380,240)"/>
<path d="M0 0 C3.96 0 7.92 0 12 0 C12.33 5.61 12.66 11.22 13 17 C13.66 17.33 14.32 17.66 15 18 C15 20.31 15 22.62 15 25 C14.34 25 13.68 25 13 25 C13.33 32.92 13.66 40.84 14 49 C13.34 49 12.68 49 12 49 C10.53038123 33.04413902 10.90535482 17.00522721 11 1 C7.37 1 3.74 1 0 1 C0 0.67 0 0.34 0 0 Z " fill="#EED1D2" transform="translate(400,63)"/>
<path d="M0 0 C1.89671385 3.54525953 3.25664542 7.22302128 4.625 11 C5.07101562 12.216875 5.51703125 13.43375 5.9765625 14.6875 C7 18 7 18 7 22 C4.36 22 1.72 22 -1 22 C-1 21.34 -1 20.68 -1 20 C-0.34 20 0.32 20 1 20 C1 18.68 1 17.36 1 16 C0.34 16 -0.32 16 -1 16 C-1.07427838 12.65747276 -1.06546953 10.1964086 0 7 C-0.165 6.34 -0.33 5.68 -0.5 5 C-1 3 -1 3 0 0 Z " fill="#E02665" transform="translate(433,250)"/>
<path d="M0 0 C0.66 0 1.32 0 2 0 C2.67184618 2.10251861 3.33730968 4.20707763 4 6.3125 C4.37125 7.48425781 4.7425 8.65601563 5.125 9.86328125 C6 13 6 13 6 16 C2.7 16 -0.6 16 -4 16 C-2.68 10.72 -1.36 5.44 0 0 Z " fill="#DCDCDC" transform="translate(364,387)"/>
<path d="M0 0 C1.98 0.66 3.96 1.32 6 2 C6.33 1.34 6.66 0.68 7 0 C10.63 0.33 14.26 0.66 18 1 C17.236875 1.7425 16.47375 2.485 15.6875 3.25 C13.5606298 5.4263323 11.7440044 7.52167796 10 10 C7.00779732 8.63629701 4.70973471 7.05091917 2.25 4.875 C1.63640625 4.33617187 1.0228125 3.79734375 0.390625 3.2421875 C-0.06828125 2.83226562 -0.5271875 2.42234375 -1 2 C-0.67 1.34 -0.34 0.68 0 0 Z " fill="#16469F" transform="translate(331,176)"/>
<path d="M0 0 C0.33 0 0.66 0 1 0 C1 6.6 1 13.2 1 20 C-0.98 20 -2.96 20 -5 20 C-4.67 14.72 -4.34 9.44 -4 4 C-3.34 4.33 -2.68 4.66 -2 5 C-2 6.32 -2 7.64 -2 9 C-1.34 9 -0.68 9 0 9 C0 6.03 0 3.06 0 0 Z " fill="#E50E43" transform="translate(414,140)"/>
<path d="M0 0 C0.66 0.66 1.32 1.32 2 2 C1.69903201 6.13830989 1.32101984 8.51847024 -1 12 C-0.01 12.33 0.98 12.66 2 13 C1.88617347 14.95901454 1.75858875 16.9172338 1.625 18.875 C1.55539062 19.96554688 1.48578125 21.05609375 1.4140625 22.1796875 C1 25 1 25 -1 27 C-2.79362465 18.25607982 -3.23737365 9.91469911 -3 1 C-2.01 1.33 -1.02 1.66 0 2 C0 1.34 0 0.68 0 0 Z " fill="#E70E5F" transform="translate(398,195)"/>
<path d="M0 0 C3.63002289 3.63002289 3.05557854 8.48844956 3.0625 13.375 C3.04658248 14.91672526 3.02741912 16.4584364 3 18 C1.02 17.67 -0.96 17.34 -3 17 C-3.33 15.02 -3.66 13.04 -4 11 C-3.34 11 -2.68 11 -2 11 C-1.93941406 10.37351563 -1.87882812 9.74703125 -1.81640625 9.1015625 C-1.73261719 8.28429687 -1.64882813 7.46703125 -1.5625 6.625 C-1.48128906 5.81289062 -1.40007812 5.00078125 -1.31640625 4.1640625 C-1 2 -1 2 0 0 Z " fill="#E60F5E" transform="translate(420,194)"/>
<path d="M0 0 C0.33 0 0.66 0 1 0 C2.40840446 11.98227183 2.40840446 11.98227183 1 18 C0.34 18.66 -0.32 19.32 -1 20 C-3.52653315 13.83354621 -4.31281522 9.56407612 -3 3 C-2.34 3 -1.68 3 -1 3 C-0.67 2.01 -0.34 1.02 0 0 Z " fill="#EC3A52" transform="translate(414,272)"/>
<path d="M0 0 C0.89102757 2.40577445 1.07752738 3.72477782 0.375 6.21875 C-1.44997057 9.91016775 -3.91952888 12.73279494 -6.625 15.8125 C-7.140625 16.40998047 -7.65625 17.00746094 -8.1875 17.62304688 C-9.45246272 19.08712409 -10.72543834 20.54427155 -12 22 C-12 17.51031461 -9.77495929 14.33732705 -7.6875 10.4375 C-7.28337891 9.65697266 -6.87925781 8.87644531 -6.46289062 8.07226562 C-6.06650391 7.32525391 -5.67011719 6.57824219 -5.26171875 5.80859375 C-4.90037842 5.12595459 -4.53903809 4.44331543 -4.16674805 3.73999023 C-3 2 -3 2 0 0 Z " fill="#1073CC" transform="translate(363,308)"/>
<path d="M0 0 C0.33 0 0.66 0 1 0 C1.03758423 0.92897095 1.03758423 0.92897095 1.07592773 1.87670898 C1.19322658 4.73044888 1.31533586 7.58396441 1.4375 10.4375 C1.47681641 11.41138672 1.51613281 12.38527344 1.55664062 13.38867188 C1.81368167 19.30061599 2.27719621 25.12645997 3 31 C2.01 31 1.02 31 0 31 C0.33 31.99 0.66 32.98 1 34 C1.06740865 35.56118428 1.08514456 37.1250252 1.0625 38.6875 C1.05347656 39.49574219 1.04445313 40.30398437 1.03515625 41.13671875 C1.02355469 41.75160156 1.01195312 42.36648437 1 43 C0.01 43 -0.98 43 -2 43 C-1.01 21.715 -1.01 21.715 0 0 Z " fill="#417DC4" transform="translate(362,181)"/>
<path d="M0 0 C1.37478516 0.01740234 1.37478516 0.01740234 2.77734375 0.03515625 C3.69644531 0.04417969 4.61554688 0.05320312 5.5625 0.0625 C6.27277344 0.07410156 6.98304688 0.08570313 7.71484375 0.09765625 C6.72484375 0.59265625 6.72484375 0.59265625 5.71484375 1.09765625 C6.04484375 3.73765625 6.37484375 6.37765625 6.71484375 9.09765625 C-0.91015625 7.34765625 -0.91015625 7.34765625 -4.28515625 5.09765625 C-3.16461059 0.13523977 -3.16461059 0.13523977 0 0 Z " fill="#DFDFDF" transform="translate(474.28515625,382.90234375)"/>
<path d="M0 0 C0.66 0.33 1.32 0.66 2 1 C1.67 2.32 1.34 3.64 1 5 C1.928125 5.4640625 1.928125 5.4640625 2.875 5.9375 C4.25 6.625 5.625 7.3125 7 8 C7 7.01 7 6.02 7 5 C10.75 3.875 10.75 3.875 13 5 C15.71760108 5.07181821 18.40859388 5.09299506 21.125 5.0625 C22.25615234 5.05573242 22.25615234 5.05573242 23.41015625 5.04882812 C25.27347127 5.03703499 27.13674555 5.01909942 29 5 C29 5.33 29 5.66 29 6 C25.62723803 6.53606515 22.25158256 7.0510996 18.875 7.5625 C17.92367188 7.71396484 16.97234375 7.86542969 15.9921875 8.02148438 C4.4352179 9.74700414 4.4352179 9.74700414 -0.875 5.9375 C-1.57625 5.298125 -2.2775 4.65875 -3 4 C-2 2 -2 2 0 0 Z " fill="#F9D62A" transform="translate(446,344)"/>
<path d="M0 0 C0.99386719 0.00902344 1.98773438 0.01804688 3.01171875 0.02734375 C4.15060547 0.04474609 4.15060547 0.04474609 5.3125 0.0625 C3.3325 1.0525 3.3325 1.0525 1.3125 2.0625 C1.9725 2.7225 2.6325 3.3825 3.3125 4.0625 C-0.79207614 7.04764628 -3.66495369 7.3579439 -8.6875 7.0625 C-8.6875 5.0825 -8.6875 3.1025 -8.6875 1.0625 C-5.53819107 0.01273036 -3.29935544 -0.03881595 0 0 Z " fill="#66B241" transform="translate(456.6875,240.9375)"/>
<path d="M0 0 C2.94751667 2.74423966 5.22773678 5.36219655 7 9 C6.67 9.99 6.34 10.98 6 12 C3.69 12 1.38 12 -1 12 C-1 11.34 -1 10.68 -1 10 C-1.66 9.67 -2.32 9.34 -3 9 C-2.505 8.2575 -2.01 7.515 -1.5 6.75 C0.31923475 3.93681812 0.31923475 3.93681812 0 0 Z " fill="#203D90" transform="translate(366,162)"/>
<path d="M0 0 C1.60031344 3.20062687 0.03173691 5.72271806 -1 9 C-0.34 9 0.32 9 1 9 C1 9.99 1 10.98 1 12 C2.65 12 4.3 12 6 12 C6 14.66666667 6 17.33333333 6 20 C2.43689834 18.57628203 1.0724537 17.03428998 -0.75 13.6875 C-1.17796875 12.92824219 -1.6059375 12.16898437 -2.046875 11.38671875 C-3.11779873 8.7050204 -3.28530517 6.8625619 -3 4 C-1.5 1.6875 -1.5 1.6875 0 0 Z " fill="#82D7F7" transform="translate(322,316)"/>
<path d="M0 0 C0.16834933 1.77067416 0.33461909 3.54154612 0.5 5.3125 C0.5928125 6.29863281 0.685625 7.28476563 0.78125 8.30078125 C1 11 1 11 1 14 C-0.65 14 -2.3 14 -4 14 C-4.33 10.04 -4.66 6.08 -5 2 C-1 0 -1 0 0 0 Z " fill="#0E6CCB" transform="translate(367,210)"/>
<path d="M0 0 C1.485 0.99 1.485 0.99 3 2 C3.91636194 8.49336039 3.23060665 14.8658317 1 21 C-1.05760161 17.60861711 -1.24205319 14.99528916 -1.1875 11.0625 C-1.18105469 10.04285156 -1.17460937 9.02320313 -1.16796875 7.97265625 C-1.01221966 5.21625952 -0.61837386 2.68621605 0 0 Z " fill="#0686E7" transform="translate(377,232)"/>
<path d="M0 0 C-3.6441774 2.4294516 -5.71241272 2.16179575 -10 2 C-10 2.66 -10 3.32 -10 4 C-9.34 4.66 -8.68 5.32 -8 6 C-10.97 5.67 -13.94 5.34 -17 5 C-17.33 6.32 -17.66 7.64 -18 9 C-18.33 8.34 -18.66 7.68 -19 7 C-19.66 7 -20.32 7 -21 7 C-21 6.34 -21 5.68 -21 5 C-21.66 4.67 -22.32 4.34 -23 4 C-7.25512528 -0.59225513 -7.25512528 -0.59225513 0 0 Z " fill="#DDEBE0" transform="translate(464,264)"/>
<path d="M0 0 C0 1.98 0 3.96 0 6 C-0.66 6 -1.32 6 -2 6 C-2.33 8.64 -2.66 11.28 -3 14 C-4.32 13.67 -5.64 13.34 -7 13 C-6.09032258 3.90322581 -6.09032258 3.90322581 -4 1 C-1 0 -1 0 0 0 Z " fill="#0397F7" transform="translate(360,242)"/>
<path d="M0 0 C1.32 0 2.64 0 4 0 C4.66 1.32 5.32 2.64 6 4 C4.3125 6.0625 4.3125 6.0625 2 8 C-0.75 7.75 -0.75 7.75 -3 7 C-3 7.99 -3 8.98 -3 10 C-4.32 9.67 -5.64 9.34 -7 9 C-6.01 9 -5.02 9 -4 9 C-3.896875 8.443125 -3.79375 7.88625 -3.6875 7.3125 C-2.84251232 4.47026871 -1.7810349 2.37471321 0 0 Z " fill="#E3EFF3" transform="translate(345,336)"/>
<path d="M0 0 C5.23002157 7.84503236 6.62881034 17.7388179 7 27 C6.34 27 5.68 27 5 27 C4.87882812 26.01257813 4.75765625 25.02515625 4.6328125 24.0078125 C4.46523438 22.72648437 4.29765625 21.44515625 4.125 20.125 C3.88136719 18.21074219 3.88136719 18.21074219 3.6328125 16.2578125 C3.30122527 12.92835773 3.30122527 12.92835773 1 11 C0.34 10.34 -0.32 9.68 -1 9 C-0.625 6.625 -0.625 6.625 0 4 C0 2.68 0 1.36 0 0 Z " fill="#3968B4" transform="translate(373,173)"/>
<path d="M0 0 C0 1.32 0 2.64 0 4 C-0.66 4.66 -1.32 5.32 -2 6 C-4 6 -6 6 -8 6 C-9.66933058 6.6599679 -11.3364521 7.32558869 -13 8 C-13.99 7.67 -14.98 7.34 -16 7 C-13.89983377 5.82558465 -11.79541245 4.66035988 -9.6875 3.5 C-9.09259766 3.16613281 -8.49769531 2.83226562 -7.88476562 2.48828125 C-5.04171156 0.93174886 -3.29339012 0 0 0 Z " fill="#1DABD4" transform="translate(401,256)"/>
<path d="M0 0 C0.33 0 0.66 0 1 0 C1.33 3.3 1.66 6.6 2 10 C1.01 10.495 1.01 10.495 0 11 C-0.33 11.99 -0.66 12.98 -1 14 C-1.66 13.34 -2.32 12.68 -3 12 C-3.99 12.33 -4.98 12.66 -6 13 C-4.58707905 8.1725201 -2.57025846 4.2837641 0 0 Z " fill="#34B4F9" transform="translate(342,280)"/>
<path d="M0 0 C0.33 0.99 0.66 1.98 1 3 C-0.29327628 5.02613283 -1.6296945 7.02514795 -3 9 C-3.185625 9.763125 -3.37125 10.52625 -3.5625 11.3125 C-3.7790625 12.1478125 -3.7790625 12.1478125 -4 13 C-4.99 13.33 -5.98 13.66 -7 14 C-7 13.01 -7 12.02 -7 11 C-7.99 10.67 -8.98 10.34 -10 10 C-9.67 9.01 -9.34 8.02 -9 7 C-8.34 7.33 -7.68 7.66 -7 8 C-6.54625 7.505 -6.0925 7.01 -5.625 6.5 C-4 5 -4 5 -2 5 C-1.855625 4.360625 -1.71125 3.72125 -1.5625 3.0625 C-1 1 -1 1 0 0 Z " fill="#5FC5F5" transform="translate(354,319)"/>
<path d="M0 0 C0.66 0 1.32 0 2 0 C2.33 1.65 2.66 3.3 3 5 C2.34 5 1.68 5 1 5 C1.99 5.99 2.98 6.98 4 8 C3.25 9.9375 3.25 9.9375 2 12 C-0.078125 12.62890625 -0.078125 12.62890625 -2 13 C-2.05447047 11.58376784 -2.09300508 10.16691809 -2.125 8.75 C-2.14820313 7.96109375 -2.17140625 7.1721875 -2.1953125 6.359375 C-1.9828378 3.79268059 -1.28654105 2.2083933 0 0 Z " fill="#F88728" transform="translate(450,299)"/>
<path d="M0 0 C0.66 0.33 1.32 0.66 2 1 C2 2.32 2 3.64 2 5 C3.65 5 5.3 5 7 5 C7 5.99 7 6.98 7 8 C6.01 8.495 6.01 8.495 5 9 C4.34786708 11.02463255 4.34786708 11.02463255 4 13 C4.66 13 5.32 13 6 13 C6 14.65 6 16.3 6 18 C5.67 17.01 5.34 16.02 5 15 C4.34 15 3.68 15 3 15 C2.5196682 13.41701974 2.04078388 11.83360022 1.5625 10.25 C1.29566406 9.36828125 1.02882813 8.4865625 0.75390625 7.578125 C-0.65534805 2.75891341 -0.65534805 2.75891341 -1 1 C-0.67 0.67 -0.34 0.34 0 0 Z " fill="#F16D4E" transform="translate(414,291)"/>
<path d="M0 0 C0.99 0.33 1.98 0.66 3 1 C3 1.99 3 2.98 3 4 C3.66 4.33 4.32 4.66 5 5 C4.67 5.66 4.34 6.32 4 7 C5.32 7 6.64 7 8 7 C8 7.66 8 8.32 8 9 C4.7 9 1.4 9 -2 9 C-2.66 7.68 -3.32 6.36 -4 5 C-2.35 5 -0.7 5 1 5 C0.67 3.35 0.34 1.7 0 0 Z " fill="#66B435" transform="translate(464,253)"/>
<path d="M0 0 C0.66 0 1.32 0 2 0 C3.06723961 3.46222615 3.10173486 6.64039266 3.0625 10.25 C3.05347656 11.32765625 3.04445313 12.4053125 3.03515625 13.515625 C3.02355469 14.33546875 3.01195312 15.1553125 3 16 C2.34 16 1.68 16 1 16 C0.67 16.99 0.34 17.98 0 19 C0 12.73 0 6.46 0 0 Z " fill="#1752AF" transform="translate(363,184)"/>
<path d="M0 0 C1.20272819 2.40545638 1.10071472 3.94996953 1.0625 6.625 C1.05347656 7.44226563 1.04445313 8.25953125 1.03515625 9.1015625 C1.02355469 9.72804688 1.01195312 10.35453125 1 11 C0.01 11 -0.98 11 -2 11 C-2.103125 11.61875 -2.20625 12.2375 -2.3125 12.875 C-3 15 -3 15 -6 17 C-5.55522376 11.75164033 -5.05736727 8.40260887 -2 4 C-1.31903578 2.67391178 -0.64669414 1.34313399 0 0 Z " fill="#5EC7F9" transform="translate(335,293)"/>
<path d="M0 0 C-3.28463659 2.18975773 -6.20696275 2.99806563 -10 4 C-10 4.99 -10 5.98 -10 7 C-10.99 8.485 -10.99 8.485 -12 10 C-12 9.01 -12 8.02 -12 7 C-12.66 7 -13.32 7 -14 7 C-14 6.01 -14 5.02 -14 4 C-15.65 4.33 -17.3 4.66 -19 5 C-19 4.34 -19 3.68 -19 3 C-16.96040523 2.49161436 -14.91820862 1.99366114 -12.875 1.5 C-11.73804688 1.2215625 -10.60109375 0.943125 -9.4296875 0.65625 C-6.18533302 0.03546235 -3.29185543 -0.12006768 0 0 Z " fill="#6DB77A" transform="translate(451,241)"/>
<path d="M0 0 C0.99 0.495 0.99 0.495 2 1 C2 2.32 2 3.64 2 5 C2.66 5 3.32 5 4 5 C4 8.96 4 12.92 4 17 C3.34 17.33 2.68 17.66 2 18 C2 16.35 2 14.7 2 13 C1.34 13 0.68 13 0 13 C0.185625 12.154375 0.37125 11.30875 0.5625 10.4375 C1.03529632 6.7226718 0.66064631 3.67025727 0 0 Z " fill="#1164BF" transform="translate(376,195)"/>
<path d="M0 0 C0.33 1.32 0.66 2.64 1 4 C2.65 3.34 4.3 2.68 6 2 C5.01 5.3 4.02 8.6 3 12 C2.01 11.67 1.02 11.34 0 11 C-1.28571429 3.57142857 -1.28571429 3.57142857 0 0 Z " fill="#E7E7E7" transform="translate(346,396)"/>
<path d="M0 0 C1.32 0 2.64 0 4 0 C4 0.99 4 1.98 4 3 C4.66 3 5.32 3 6 3 C5.40138258 5.35171131 4.73075648 7.6859378 4 10 C3.01 10.495 3.01 10.495 2 11 C0.57741188 7.17679443 -0.24042276 4.08718695 0 0 Z " fill="#4BA375" transform="translate(433,245)"/>
<path d="M0 0 C0.99 0.33 1.98 0.66 3 1 C3 1.99 3 2.98 3 4 C1.865625 4.4125 0.73125 4.825 -0.4375 5.25 C-4.09543384 6.56685398 -4.09543384 6.56685398 -4.9375 9.1875 C-4.958125 9.785625 -4.97875 10.38375 -5 11 C-6.32 11.33 -7.64 11.66 -9 12 C-8.51113445 7.71872287 -7.38573844 5.90797457 -4.125 3.125 C-3.42632812 2.50882813 -2.72765625 1.89265625 -2.0078125 1.2578125 C-1.34523438 0.84273437 -0.68265625 0.42765625 0 0 Z " fill="#31458E" transform="translate(330,156)"/>
<path d="M0 0 C2.31 0 4.62 0 7 0 C7 2.31 7 4.62 7 7 C5.68 7.33 4.36 7.66 3 8 C0 2.25 0 2.25 0 0 Z " fill="#F79F21" transform="translate(425,320)"/>
<path d="M0 0 C0.33 0 0.66 0 1 0 C1.66 5.61 2.32 11.22 3 17 C1.68 16.67 0.36 16.34 -1 16 C-1.11138159 10.54230189 -0.91657981 5.38490641 0 0 Z " fill="#F2CFDB" transform="translate(396,216)"/>
<path d="M0 0 C0.66 0.66 1.32 1.32 2 2 C1.8125 5.5 1.8125 5.5 1 9 C0.01 9.66 -0.98 10.32 -2 11 C-3 10 -3 10 -3.09765625 7.93359375 C-3.08605469 7.10988281 -3.07445312 6.28617188 -3.0625 5.4375 C-3.05347656 4.61121094 -3.04445313 3.78492188 -3.03515625 2.93359375 C-3.02355469 2.29550781 -3.01195312 1.65742188 -3 1 C-2.01 1.33 -1.02 1.66 0 2 C0 1.34 0 0.68 0 0 Z " fill="#E40351" transform="translate(398,195)"/>
<path d="M0 0 C6.875 3.75 6.875 3.75 8 6 C8.99 6.66 9.98 7.32 11 8 C10.67 8.66 10.34 9.32 10 10 C7.00779732 8.63629701 4.70973471 7.05091917 2.25 4.875 C1.63640625 4.33617187 1.0228125 3.79734375 0.390625 3.2421875 C-0.06828125 2.83226562 -0.5271875 2.42234375 -1 2 C-0.67 1.34 -0.34 0.68 0 0 Z " fill="#2B57A7" transform="translate(331,176)"/>
<path d="M0 0 C1.32 0.33 2.64 0.66 4 1 C4.33 2.32 4.66 3.64 5 5 C9.62 4.67 14.24 4.34 19 4 C19 4.66 19 5.32 19 6 C11.08 6.495 11.08 6.495 3 7 C2.67 5.68 2.34 4.36 2 3 C1.34 3 0.68 3 0 3 C0 2.01 0 1.02 0 0 Z " fill="#DBDBDB" transform="translate(409,413)"/>
<path d="M0 0 C2.06473354 2.06473354 2.60506767 3.24566146 3.5625 5.9375 C3.81128906 6.62714844 4.06007813 7.31679688 4.31640625 8.02734375 C4.88940471 9.68085359 5.44660846 11.33982537 6 13 C4.02 13.99 4.02 13.99 2 15 C1.896875 13.906875 1.79375 12.81375 1.6875 11.6875 C1.02692273 8.14440371 0.7972908 7.06756277 -2 5 C-1 2 -1 2 0 0 Z " fill="#F36F4C" transform="translate(446,286)"/>
<path d="M0 0 C0 4.62 0 9.24 0 14 C-0.66 14 -1.32 14 -2 14 C-2.8723412 11.00519083 -3.10829766 8.36424089 -3.0625 5.25 C-3.05347656 4.45078125 -3.04445313 3.6515625 -3.03515625 2.828125 C-3.02355469 2.22484375 -3.01195312 1.6215625 -3 1 C-1 0 -1 0 0 0 Z " fill="#F1E4E9" transform="translate(428,208)"/>
<path d="M0 0 C0.33 0 0.66 0 1 0 C1.10841844 6.50510662 0.51238081 10.97028607 -2 17 C-2.66 16.34 -3.32 15.68 -4 15 C-4 13.68 -4 12.36 -4 11 C-3.34 11 -2.68 11 -2 11 C-1.93941406 10.37351563 -1.87882812 9.74703125 -1.81640625 9.1015625 C-1.73261719 8.28429687 -1.64882813 7.46703125 -1.5625 6.625 C-1.48128906 5.81289062 -1.40007812 5.00078125 -1.31640625 4.1640625 C-1 2 -1 2 0 0 Z " fill="#E60456" transform="translate(420,194)"/>
<path d="M0 0 C0.33 2.64 0.66 5.28 1 8 C1.66 8 2.32 8 3 8 C2.67 11.3 2.34 14.6 2 18 C1.67 18 1.34 18 1 18 C-0.32 12.39 -1.64 6.78 -3 1 C-1 0 -1 0 0 0 Z " fill="#E2E8F1" transform="translate(378,176)"/>
<path d="M0 0 C0.99 0 1.98 0 3 0 C3.33 1.65 3.66 3.3 4 5 C3.01 5.66 2.02 6.32 1 7 C0.01 6.67 -0.98 6.34 -2 6 C-1.34 5.34 -0.68 4.68 0 4 C0 2.68 0 1.36 0 0 Z M-6 6 C-4.68 6.33 -3.36 6.66 -2 7 C-2 7.66 -2 8.32 -2 9 C-3.32 9.33 -4.64 9.66 -6 10 C-6 8.68 -6 7.36 -6 6 Z " fill="#72D1F9" transform="translate(344,330)"/>
<path d="M0 0 C4.00972202 3.67557852 6.45335415 7.18966896 9 12 C8.34 12 7.68 12 7 12 C7 11.34 7 10.68 7 10 C6.34 10 5.68 10 5 10 C5 9.34 5 8.68 5 8 C3.35 8 1.7 8 0 8 C0 5.36 0 2.72 0 0 Z " fill="#F8C12B" transform="translate(464,321)"/>
<path d="M0 0 C1.83979073 2.7596861 2.48323221 4.29741882 3.1875 7.4375 C3.36667969 8.19933594 3.54585938 8.96117187 3.73046875 9.74609375 C4.0154963 12.12958496 3.72875415 13.73104204 3 16 C3 15.34 3 14.68 3 14 C2.01 13.67 1.02 13.34 0 13 C0.33 12.34 0.66 11.68 1 11 C0.34 11 -0.32 11 -1 11 C-1.125 6.25 -1.125 6.25 0 4 C0 2.68 0 1.36 0 0 Z " fill="#E6217C" transform="translate(429,234)"/>
<path d="M0 0 C2.29903669 4.10542266 4.35523153 8.69099505 3.625 13.4375 C3.41875 13.953125 3.2125 14.46875 3 15 C3 14.01 3 13.02 3 12 C1.68 12 0.36 12 -1 12 C-1.02712066 10.56260487 -1.04645067 9.12506137 -1.0625 7.6875 C-1.07410156 6.88699219 -1.08570313 6.08648437 -1.09765625 5.26171875 C-1 3 -1 3 0 0 Z " fill="#E81E73" transform="translate(425,218)"/>
<path d="M0 0 C-0.556875 0.4125 -1.11375 0.825 -1.6875 1.25 C-3.36611594 2.52030395 -5.00782147 3.83985123 -6.625 5.1875 C-9 7 -9 7 -11 7 C-11.33 5.68 -11.66 4.36 -12 3 C-7.89542386 0.01485372 -5.02254631 -0.2954439 0 0 Z " fill="#DFE4EB" transform="translate(336,153)"/>
<path d="M0 0 C0.33 0 0.66 0 1 0 C1.22304441 1.74818591 1.4278645 3.49870323 1.625 5.25 C1.74101562 6.22453125 1.85703125 7.1990625 1.9765625 8.203125 C2.00112537 11.13429393 1.5312717 12.54528964 0 15 C-1.37252731 12.25494537 -1.13229255 9.99672588 -1.125 6.9375 C-1.12757813 5.85339844 -1.13015625 4.76929688 -1.1328125 3.65234375 C-1 1 -1 1 0 0 Z " fill="#E30633" transform="translate(390,134)"/>
<path d="M0 0 C0.66 0 1.32 0 2 0 C2.84098656 4.01804691 3.05404945 7.01803543 2 11 C-0.43542455 9.09401557 -1.00158196 7.99403725 -1.8125 4.9375 C-1.874375 3.968125 -1.93625 2.99875 -2 2 C-1.34 1.34 -0.68 0.68 0 0 Z " fill="#F38637" transform="translate(422,307)"/>
<path d="M0 0 C2.52017426 2.52017426 2.29730377 3.51499849 2.3125 7 C2.32925781 7.886875 2.34601563 8.77375 2.36328125 9.6875 C2.24339844 10.450625 2.12351562 11.21375 2 12 C1.01 12.66 0.02 13.32 -1 14 C-1.08333357 9.1666528 -0.95261487 4.76307437 0 0 Z " fill="#D4E6F3" transform="translate(380,240)"/>
<path d="M0 0 C0.33 0 0.66 0 1 0 C1.91657981 5.38490641 2.11138159 10.54230189 2 16 C1.01 16 0.02 16 -1 16 C-0.67 10.72 -0.34 5.44 0 0 Z " fill="#2B80D2" transform="translate(361,208)"/>
<path d="M0 0 C1.95803507 -0.05389087 3.91648909 -0.09274217 5.875 -0.125 C7.51082031 -0.15980469 7.51082031 -0.15980469 9.1796875 -0.1953125 C12 0 12 0 14 2 C9.38 2.33 4.76 2.66 0 3 C0 2.01 0 1.02 0 0 Z " fill="#1C3485" transform="translate(335,155)"/>
<path d="M0 0 C1.65 0.33 3.3 0.66 5 1 C2.45543849 3.96865509 -0.48994665 5.3619751 -4 7 C-4.66 6.34 -5.32 5.68 -6 5 C-4.6875 3.5 -4.6875 3.5 -3 2 C-2.01 2 -1.02 2 0 2 C0 1.34 0 0.68 0 0 Z " fill="#0DA3EA" transform="translate(392,287)"/>
<path d="M0 0 C2.41346327 4.1373656 4.5081809 9.45467653 3.55078125 14.25 C3.36902344 14.8275 3.18726563 15.405 3 16 C-1.77676538 5.62642369 -1.77676538 5.62642369 0 0 Z " fill="#2E92C1" transform="translate(404,260)"/>
<path d="M0 0 C0.98484375 0.02707031 1.9696875 0.05414063 2.984375 0.08203125 C3.73203125 0.11683594 4.4796875 0.15164062 5.25 0.1875 C4.92 1.1775 4.59 2.1675 4.25 3.1875 C-0.37 3.1875 -4.99 3.1875 -9.75 3.1875 C-5.5452889 0.03396667 -4.89908143 -0.17496719 0 0 Z " fill="#4657A1" transform="translate(343.75,151.8125)"/>
<path d="M0 0 C0.33 0.66 0.66 1.32 1 2 C2.32 2 3.64 2 5 2 C4.67 4.64 4.34 7.28 4 10 C0.92436109 8.46218054 0.29677426 6.08755777 -1 3 C-0.67 2.01 -0.34 1.02 0 0 Z " fill="#F9B21D" transform="translate(430,326)"/>
<path d="M0 0 C2 3 2 3 2 5 C-1.465 6.485 -1.465 6.485 -5 8 C-5.33 7.01 -5.66 6.02 -6 5 C-4.68 4.67 -3.36 4.34 -2 4 C-2 3.01 -2 2.02 -2 1 C-1.34 0.67 -0.68 0.34 0 0 Z " fill="#1EA2D6" transform="translate(408,277)"/>
<path d="M0 0 C0.66 0 1.32 0 2 0 C2.80967438 2.91482778 3.21845993 4.46113217 2.0625 7.3125 C1.5365625 8.1478125 1.5365625 8.1478125 1 9 C1 8.34 1 7.68 1 7 C0.34 7 -0.32 7 -1 7 C-1.33 8.32 -1.66 9.64 -2 11 C-3 9 -3 9 -2.44140625 6.8359375 C-2.15136719 6.02382812 -1.86132812 5.21171875 -1.5625 4.375 C-1.27503906 3.55773437 -0.98757813 2.74046875 -0.69140625 1.8984375 C-0.46324219 1.27195313 -0.23507812 0.64546875 0 0 Z " fill="#1E96EB" transform="translate(357,236)"/>
<path d="M0 0 C0.66 0.66 1.32 1.32 2 2 C1.6700572 5.39770885 0.1807479 7.2681087 -2.0625 9.75 C-2.61035156 10.36359375 -3.15820312 10.9771875 -3.72265625 11.609375 C-4.14417969 12.06828125 -4.56570313 12.5271875 -5 13 C-5 9.51038791 -4.09620626 7.88519705 -2.5 4.8125 C-2.0359375 3.91144531 -1.571875 3.01039063 -1.09375 2.08203125 C-0.7328125 1.39496094 -0.371875 0.70789063 0 0 Z " fill="#317DC7" transform="translate(356,317)"/>
<path d="M0 0 C2.34914492 2.34914492 2.73140357 3.95679446 3.625 7.125 C3.88539063 8.03507812 4.14578125 8.94515625 4.4140625 9.8828125 C4.70410156 10.93082031 4.70410156 10.93082031 5 12 C4.34 12 3.68 12 3 12 C2.67 10.68 2.34 9.36 2 8 C1.34 8 0.68 8 0 8 C-0.79953138 4.71303767 -1.09658936 3.28976808 0 0 Z " fill="#F0E1DA" transform="translate(411,288)"/>
<path d="M0 0 C0.66 0 1.32 0 2 0 C4.04169485 2.90548882 5 4.40142046 5 8 C3.35 8 1.7 8 0 8 C0 5.36 0 2.72 0 0 Z " fill="#0975CF" transform="translate(363,216)"/>
<path d="M0 0 C0.66 0 1.32 0 2 0 C2 0.66 2 1.32 2 2 C4.64 1.67 7.28 1.34 10 1 C10 1.99 10 2.98 10 4 C9.01 4 8.02 4 7 4 C6.67 4.66 6.34 5.32 6 6 C5.34 5.34 4.68 4.68 4 4 C3.34 4 2.68 4 2 4 C1.67 4.66 1.34 5.32 1 6 C0.67 4.02 0.34 2.04 0 0 Z " fill="#163C92" transform="translate(363,172)"/>
<path d="M0 0 C0.33 0 0.66 0 1 0 C1 3.3 1 6.6 1 10 C1.99 10.33 2.98 10.66 4 11 C4 11.99 4 12.98 4 14 C3.01 14 2.02 14 1 14 C1 13.34 1 12.68 1 12 C0.01 12 -0.98 12 -2 12 C-1.67 11.34 -1.34 10.68 -1 10 C-0.77377919 8.29636178 -0.59111527 6.58671299 -0.4375 4.875 C-0.35371094 3.96492188 -0.26992188 3.05484375 -0.18359375 2.1171875 C-0.12300781 1.41851562 -0.06242187 0.71984375 0 0 Z " fill="#CACACA" transform="translate(459,407)"/>
<path d="M0 0 C2.64752004 2.57784846 4.94432065 4.91648098 7 8 C4.36 7.67 1.72 7.34 -1 7 C-0.67 4.69 -0.34 2.38 0 0 Z " fill="#F3EDD9" transform="translate(433,336)"/>
<path d="M0 0 C2.375 0.25 2.375 0.25 5 1 C6.3125 3.0625 6.3125 3.0625 7 5 C4.69 5 2.38 5 0 5 C0 3.35 0 1.7 0 0 Z " fill="#F6A527" transform="translate(457,315)"/>
<path d="M0 0 C0.33 0 0.66 0 1 0 C0.88652381 1.97986082 0.7589065 3.95891598 0.625 5.9375 C0.52058594 7.59072266 0.52058594 7.59072266 0.4140625 9.27734375 C0.27742188 10.17582031 0.14078125 11.07429687 0 12 C-0.99 12.495 -0.99 12.495 -2 13 C-3.18771723 9.57056481 -2.80226223 7.62215325 -1.5625 4.25 C-1.27503906 3.45078125 -0.98757813 2.6515625 -0.69140625 1.828125 C-0.46324219 1.22484375 -0.23507812 0.6215625 0 0 Z " fill="#0995EF" transform="translate(379,240)"/>
<path d="M0 0 C2.91589609 4.37384413 4.30254716 7.70542471 4 13 C2.35 12.01 0.7 11.02 -1 10 C-0.835 9.0925 -0.67 8.185 -0.5 7.25 C0.10137146 3.88912497 0.10137146 3.88912497 0 0 Z " fill="#385BA4" transform="translate(373,173)"/>
<path d="M0 0 C0.66 0 1.32 0 2 0 C2 0.99 2 1.98 2 3 C3.32 3.33 4.64 3.66 6 4 C6 4.66 6 5.32 6 6 C3.36 6 0.72 6 -2 6 C-2 5.34 -2 4.68 -2 4 C-1.34 4 -0.68 4 0 4 C0 2.68 0 1.36 0 0 Z " fill="#EE285C" transform="translate(434,266)"/>
<path d="M0 0 C0.66 0.33 1.32 0.66 2 1 C2 5.62 2 10.24 2 15 C-0.77458464 10.83812305 -1.41714582 6.3836904 -0.5625 1.5 C-0.376875 1.005 -0.19125 0.51 0 0 Z " fill="#DB1670" transform="translate(406,257)"/>
<path d="M0 0 C2.60018816 3.90028225 2.15085514 7.47434569 2 12 C1.01 12 0.02 12 -1 12 C-0.814375 11.2575 -0.62875 10.515 -0.4375 9.75 C0.00102787 6.99353908 -0.2992106 5.62796027 -1 3 C-0.67 2.01 -0.34 1.02 0 0 Z " fill="#E80D69" transform="translate(433,250)"/>
<path d="M0 0 C0.99 0.99 1.98 1.98 3 3 C2.34 4.98 1.68 6.96 1 9 C1.66 9 2.32 9 3 9 C2.34 10.32 1.68 11.64 1 13 C-0.32229189 10.35541621 -0.09677194 8.32238699 -0.0625 5.375 C-0.05347656 4.37210938 -0.04445313 3.36921875 -0.03515625 2.3359375 C-0.02355469 1.56507813 -0.01195312 0.79421875 0 0 Z " fill="#E6074D" transform="translate(393,181)"/>
<path d="M0 0 C0.99 0 1.98 0 3 0 C3 1.32 3 2.64 3 4 C4.32 4.66 5.64 5.32 7 6 C6.67 6.66 6.34 7.32 6 8 C5.01 8 4.02 8 3 8 C3 7.34 3 6.68 3 6 C2.34 6 1.68 6 1 6 C1.33 4.68 1.66 3.36 2 2 C1.34 2 0.68 2 0 2 C0 1.34 0 0.68 0 0 Z " fill="#F3EAC1" transform="translate(440,344)"/>
<path d="M0 0 C0.66 0 1.32 0 2 0 C2 2.31 2 4.62 2 7 C1.01 6.34 0.02 5.68 -1 5 C-2.65549531 4.61500109 -4.3222433 4.27206865 -6 4 C-5.34 3.34 -4.68 2.68 -4 2 C-2.68 2 -1.36 2 0 2 C0 1.34 0 0.68 0 0 Z " fill="#DD0611" transform="translate(398,65)"/>
<path d="M0 0 C0.99 0.33 1.98 0.66 3 1 C3.33 2.65 3.66 4.3 4 6 C3.01 6.495 3.01 6.495 2 7 C1.67 6.34 1.34 5.68 1 5 C0.01 5.33 -0.98 5.66 -2 6 C-1.34 4.02 -0.68 2.04 0 0 Z " fill="#4DBEF9" transform="translate(338,287)"/>
<path d="M0 0 C0.66 0 1.32 0 2 0 C1.649375 0.721875 1.29875 1.44375 0.9375 2.1875 C-0.10409017 5.3122705 0.10903428 6.88161996 1 10 C-0.32 9.67 -1.64 9.34 -3 9 C-2.67 6.69 -2.34 4.38 -2 2 C-1.34 2 -0.68 2 0 2 C0 1.34 0 0.68 0 0 Z " fill="#F15C3E" transform="translate(443,286)"/>
<path d="M0 0 C0.66 0 1.32 0 2 0 C2 2.31 2 4.62 2 7 C0.68 7 -0.64 7 -2 7 C-1.125 1.125 -1.125 1.125 0 0 Z " fill="#1FAEF9" transform="translate(346,271)"/>
<path d="M0 0 C0.66 0.33 1.32 0.66 2 1 C2 3.31 2 5.62 2 8 C0.68 8.33 -0.64 8.66 -2 9 C-1.125 2.25 -1.125 2.25 0 0 Z " fill="#14A8FA" transform="translate(350,260)"/>
<path d="M0 0 C0.66 0 1.32 0 2 0 C4.42857143 6.28571429 4.42857143 6.28571429 3 10 C2.67 9.01 2.34 8.02 2 7 C1.01 7 0.02 7 -1 7 C-0.67 4.69 -0.34 2.38 0 0 Z " fill="#ADADAD" transform="translate(364,387)"/>
<path d="M0 0 C1.65 0 3.3 0 5 0 C5.33 2.31 5.66 4.62 6 7 C1.125 3.375 1.125 3.375 0 0 Z " fill="#F9C91C" transform="translate(434,336)"/>
<path d="M0 0 C0 2.31 0 4.62 0 7 C-0.99 7.33 -1.98 7.66 -3 8 C-3.33 5.69 -3.66 3.38 -4 1 C-2 0 -2 0 0 0 Z " fill="#0975D4" transform="translate(381,218)"/>
<path d="M0 0 C0.33 0.66 0.66 1.32 1 2 C1.66 2.33 2.32 2.66 3 3 C1.35 4.65 -0.3 6.3 -2 8 C-2.33 6.02 -2.66 4.04 -3 2 C-2.34 2 -1.68 2 -1 2 C-0.67 1.34 -0.34 0.68 0 0 Z " fill="#2374C8" transform="translate(360,313)"/>
<path d="M0 0 C0.99 0.33 1.98 0.66 3 1 C2.01 1.495 2.01 1.495 1 2 C1 2.66 1 3.32 1 4 C-1.90600261 5.25664978 -3.79604584 6 -7 6 C-5.90716423 4.96704564 -4.80029421 3.94892165 -3.6875 2.9375 C-3.07261719 2.36902344 -2.45773437 1.80054688 -1.82421875 1.21484375 C-0.92123047 0.61349609 -0.92123047 0.61349609 0 0 Z " fill="#DCE4EB" transform="translate(373,306)"/>
<path d="M0 0 C0.66 0 1.32 0 2 0 C2.33 1.65 2.66 3.3 3 5 C2.34 5 1.68 5 1 5 C0.67 6.32 0.34 7.64 0 9 C-1.125 6.75 -1.125 6.75 -2 4 C-1.125 1.6875 -1.125 1.6875 0 0 Z " fill="#F57A2E" transform="translate(450,299)"/>
<path d="M0 0 C-2.31 1.65 -4.62 3.3 -7 5 C-7.33 3.68 -7.66 2.36 -8 1 C-3.375 -1.125 -3.375 -1.125 0 0 Z " fill="#224CA2" transform="translate(349,178)"/>
<path d="M0 0 C0.99 0.66 1.98 1.32 3 2 C2.01 2.99 1.02 3.98 0 5 C0 4.34 0 3.68 0 3 C-3.63 3 -7.26 3 -11 3 C-11 2.67 -11 2.34 -11 2 C-7.37 2 -3.74 2 0 2 C0 1.34 0 0.68 0 0 Z " fill="#CDCDCD" transform="translate(385,416)"/>
<path d="M0 0 C-0.66 2.31 -1.32 4.62 -2 7 C-3.32 6.01 -4.64 5.02 -6 4 C-2.25 0 -2.25 0 0 0 Z " fill="#E3EBED" transform="translate(360,321)"/>
<path d="M0 0 C0.99 0.33 1.98 0.66 3 1 C4.1875 4.0625 4.1875 4.0625 5 7 C4.01 7 3.02 7 2 7 C0 4 0 4 0 0 Z " fill="#F7A03D" transform="translate(456,309)"/>
<path d="M0 0 C1.32 0.66 2.64 1.32 4 2 C3.01 2 2.02 2 1 2 C0.896875 2.61875 0.79375 3.2375 0.6875 3.875 C0 6 0 6 -3 8 C-1.125 1.125 -1.125 1.125 0 0 Z " fill="#45C1FD" transform="translate(332,302)"/>
<path d="M0 0 C0.66 0 1.32 0 2 0 C2.33 0.66 2.66 1.32 3 2 C3.66 2 4.32 2 5 2 C4.34 3.98 3.68 5.96 3 8 C0.37613513 4.93882432 0 4.26826873 0 0 Z " fill="#EE555F" transform="translate(411,284)"/>
<path d="M0 0 C2.50298434 2.93828597 3.46930939 5.17902761 4 9 C1.525 8.01 1.525 8.01 -1 7 C-0.67 4.69 -0.34 2.38 0 0 Z " fill="#EE5C69" transform="translate(441,274)"/>
<path d="M0 0 C0.66 0.33 1.32 0.66 2 1 C-1.32307692 4.93846154 -1.32307692 4.93846154 -4.75 5.25 C-5.4925 5.1675 -6.235 5.085 -7 5 C-4.88437775 2.67281553 -2.94982021 1.14186589 0 0 Z " fill="#32B1E2" transform="translate(392,259)"/>
<path d="M0 0 C2.32472205 2.85306797 3.7508258 5.54074837 5 9 C2.525 8.01 2.525 8.01 0 7 C0 4.69 0 2.38 0 0 Z " fill="#84BB36" transform="translate(470,250)"/>
<path d="M0 0 C3.36720387 1.39332574 4.9859524 2.9789286 7 6 C4.61435923 5.42415568 2.33317216 4.77772405 0 4 C0 2.68 0 1.36 0 0 Z " fill="#2D418D" transform="translate(358,156)"/>
<path d="M0 0 C0.66 0.66 1.32 1.32 2 2 C1.625 5.125 1.625 5.125 1 8 C0.01 7.67 -0.98 7.34 -2 7 C-1.34 4.69 -0.68 2.38 0 0 Z " fill="#3FAE78" transform="translate(438,250)"/>
<path d="M0 0 C2.79872437 2.52788007 4.45773019 4.20411134 5 8 C4.01 8 3.02 8 2 8 C1.34 5.36 0.68 2.72 0 0 Z " fill="#3C4F9C" transform="translate(368,165)"/>
<path d="M0 0 C0.99 0.33 1.98 0.66 3 1 C2.67 2.32 2.34 3.64 2 5 C0.68 5.33 -0.64 5.66 -2 6 C-1.125 1.125 -1.125 1.125 0 0 Z " fill="#3B5399" transform="translate(323,162)"/>
<path d="M0 0 C1.65 0 3.3 0 5 0 C5 0.99 5 1.98 5 3 C3.68 3 2.36 3 1 3 C1 3.66 1 4.32 1 5 C0.34 4.67 -0.32 4.34 -1 4 C-0.67 2.68 -0.34 1.36 0 0 Z " fill="#FCAF11" transform="translate(435,328)"/>
<path d="M0 0 C0.33 0 0.66 0 1 0 C0.67 2.31 0.34 4.62 0 7 C-0.99 7.33 -1.98 7.66 -3 8 C-3 6.35 -3 4.7 -3 3 C-2.34 3 -1.68 3 -1 3 C-0.67 2.01 -0.34 1.02 0 0 Z " fill="#EE2C5A" transform="translate(414,272)"/>
<path d="M0 0 C0.99 0.33 1.98 0.66 3 1 C3.625 3.3125 3.625 3.3125 4 6 C3.01 7.485 3.01 7.485 2 9 C1.34 6.03 0.68 3.06 0 0 Z " fill="#49A07F" transform="translate(436,257)"/>
<path d="M0 0 C0.99 0.495 0.99 0.495 2 1 C2 2.32 2 3.64 2 5 C2.66 5 3.32 5 4 5 C3.67 6.32 3.34 7.64 3 9 C0.90250005 6.64031256 0.03094296 5.45383006 -0.1875 2.25 C-0.125625 1.5075 -0.06375 0.765 0 0 Z " fill="#1258B3" transform="translate(376,195)"/>
<path d="M0 0 C2.475 0.495 2.475 0.495 5 1 C5.33 2.65 5.66 4.3 6 6 C3.37812506 4.95125002 2.20628639 4.35068687 0.75 1.875 C0.5025 1.25625 0.255 0.6375 0 0 Z " fill="#1B3187" transform="translate(361,161)"/>
<path d="M0 0 C2.31 0.66 4.62 1.32 7 2 C6.67 2.66 6.34 3.32 6 4 C4.35 4 2.7 4 1 4 C0.67 2.68 0.34 1.36 0 0 Z " fill="#263A8E" transform="translate(350,153)"/>
<path d="M0 0 C1.43088528 2.86177057 0.59991697 4.93375773 0 8 C-1.5625 6.1875 -1.5625 6.1875 -3 4 C-2.67 3.01 -2.34 2.02 -2 1 C-1.34 0.67 -0.68 0.34 0 0 Z " fill="#D1D1D1" transform="translate(421,400)"/>
<path d="M0 0 C0.99 0 1.98 0 3 0 C3 1.65 3 3.3 3 5 C2.01 5.33 1.02 5.66 0 6 C0 4.02 0 2.04 0 0 Z " fill="#E9034E" transform="translate(417,188)"/>
</svg>
